<?xml version="1.0" encoding="UTF-8" standalone="no"?>
<!DOCTYPE svg PUBLIC "-//W3C//DTD SVG 1.1//EN"
 "http://www.w3.org/Graphics/SVG/1.1/DTD/svg11.dtd">
<!-- Generated by graphviz version 12.2.1 (20241206.2353)
 -->
<!-- Title: g Pages: 1 -->
<svg width="739pt" height="519pt"
 viewBox="0.00 0.00 738.75 518.61" xmlns="http://www.w3.org/2000/svg" xmlns:xlink="http://www.w3.org/1999/xlink">
<g id="graph0" class="graph" transform="scale(1 1) rotate(0) translate(4 514.61)">
<title>g</title>
<polygon fill="#f9f9f9" stroke="none" points="-4,4 -4,-514.61 734.75,-514.61 734.75,4 -4,4"/>
<!-- label_x -->
<g id="node1" class="node">
<title>label_x</title>
<polygon fill="none" stroke="none" points="79,-392.61 0,-392.61 0,-356.61 79,-356.61 79,-392.61"/>
<text text-anchor="middle" x="39.5" y="-369.18" font-family="Arial" font-size="14.00">Input layer</text>
</g>
<!-- x1 -->
<g id="node5" class="node">
<title>x1</title>
<ellipse fill="palegreen" stroke="black" cx="39.5" cy="-317.61" rx="21.12" ry="21.12"/>
<text text-anchor="start" x="31.62" y="-313.18" font-family="Arial" font-size="14.00">X</text>
<text text-anchor="start" x="40.62" y="-313.18" font-family="Arial" baseline-shift="sub" font-size="14.00">1</text>
</g>
<!-- label_x&#45;&gt;x1 -->
<!-- label_a1 -->
<g id="node2" class="node">
<title>label_a1</title>
<polygon fill="none" stroke="none" points="305.75,-510.61 187,-510.61 187,-474.61 305.75,-474.61 305.75,-510.61"/>
<text text-anchor="middle" x="246.38" y="-487.18" font-family="Arial" font-size="14.00">Hidden layer Lâ‚</text>
</g>
<!-- a11 -->
<g id="node9" class="node">
<title>a11</title>
<ellipse fill="deepskyblue" stroke="black" cx="246.38" cy="-425.61" rx="30.61" ry="30.61"/>
<text text-anchor="start" x="231.38" y="-421.18" font-family="Arial" font-size="14.00">A</text>
<text text-anchor="start" x="240.38" y="-421.18" font-family="Arial" baseline-shift="super" font-size="14.00">(1)</text>
<text text-anchor="start" x="254.62" y="-421.18" font-family="Arial" baseline-shift="sub" font-size="14.00">1</text>
</g>
<!-- label_a1&#45;&gt;a11 -->
<!-- label_a2 -->
<g id="node3" class="node">
<title>label_a2</title>
<polygon fill="none" stroke="none" points="532.5,-510.61 413.75,-510.61 413.75,-474.61 532.5,-474.61 532.5,-510.61"/>
<text text-anchor="middle" x="473.12" y="-487.18" font-family="Arial" font-size="14.00">Hidden layer Lâ‚‚</text>
</g>
<!-- a21 -->
<g id="node15" class="node">
<title>a21</title>
<ellipse fill="moccasin" stroke="black" cx="473.12" cy="-425.61" rx="30.61" ry="30.61"/>
<text text-anchor="start" x="458.12" y="-421.18" font-family="Arial" font-size="14.00">A</text>
<text text-anchor="start" x="467.12" y="-421.18" font-family="Arial" baseline-shift="super" font-size="14.00">(2)</text>
<text text-anchor="start" x="481.38" y="-421.18" font-family="Arial" baseline-shift="sub" font-size="14.00">1</text>
</g>
<!-- label_a2&#45;&gt;a21 -->
<!-- label_y -->
<g id="node4" class="node">
<title>label_y</title>
<polygon fill="none" stroke="none" points="730.75,-299.61 640.5,-299.61 640.5,-263.61 730.75,-263.61 730.75,-299.61"/>
<text text-anchor="middle" x="685.62" y="-276.18" font-family="Arial" font-size="14.00">Output layer</text>
</g>
<!-- y -->
<g id="node21" class="node">
<title>y</title>
<ellipse fill="pink" stroke="black" cx="685.62" cy="-227.61" rx="18" ry="18"/>
<text text-anchor="start" x="681.12" y="-222.18" font-family="Arial" font-size="14.00">Y</text>
</g>
<!-- label_y&#45;&gt;y -->
<!-- x2 -->
<g id="node6" class="node">
<title>x2</title>
<ellipse fill="palegreen" stroke="black" cx="39.5" cy="-257.61" rx="21.12" ry="21.12"/>
<text text-anchor="start" x="31.62" y="-253.18" font-family="Arial" font-size="14.00">X</text>
<text text-anchor="start" x="40.62" y="-253.18" font-family="Arial" baseline-shift="sub" font-size="14.00">2</text>
</g>
<!-- x1&#45;&gt;x2 -->
<!-- x1&#45;&gt;a11 -->
<g id="edge18" class="edge">
<title>x1&#45;&gt;a11</title>
<path fill="none" stroke="black" d="M58.68,-327.19C92.32,-344.92 164.84,-383.15 208.94,-406.4"/>
<polygon fill="black" stroke="black" points="207.15,-409.41 217.62,-410.98 210.41,-403.22 207.15,-409.41"/>
</g>
<!-- a12 -->
<g id="node10" class="node">
<title>a12</title>
<ellipse fill="deepskyblue" stroke="black" cx="246.38" cy="-346.61" rx="30.61" ry="30.61"/>
<text text-anchor="start" x="231.38" y="-342.18" font-family="Arial" font-size="14.00">A</text>
<text text-anchor="start" x="240.38" y="-342.18" font-family="Arial" baseline-shift="super" font-size="14.00">(1)</text>
<text text-anchor="start" x="254.62" y="-342.18" font-family="Arial" baseline-shift="sub" font-size="14.00">2</text>
</g>
<!-- x1&#45;&gt;a12 -->
<g id="edge19" class="edge">
<title>x1&#45;&gt;a12</title>
<path fill="none" stroke="black" d="M60.89,-320.49C94.27,-325.22 161.18,-334.69 204.58,-340.83"/>
<polygon fill="black" stroke="black" points="203.99,-344.28 214.39,-342.22 204.98,-337.35 203.99,-344.28"/>
</g>
<!-- a13 -->
<g id="node11" class="node">
<title>a13</title>
<ellipse fill="deepskyblue" stroke="black" cx="246.38" cy="-267.61" rx="30.61" ry="30.61"/>
<text text-anchor="start" x="231.38" y="-263.18" font-family="Arial" font-size="14.00">A</text>
<text text-anchor="start" x="240.38" y="-263.18" font-family="Arial" baseline-shift="super" font-size="14.00">(1)</text>
<text text-anchor="start" x="254.62" y="-263.18" font-family="Arial" baseline-shift="sub" font-size="14.00">3</text>
</g>
<!-- x1&#45;&gt;a13 -->
<g id="edge20" class="edge">
<title>x1&#45;&gt;a13</title>
<path fill="none" stroke="black" d="M60.52,-312.72C93.88,-304.58 161.5,-288.08 205.05,-277.45"/>
<polygon fill="black" stroke="black" points="205.75,-280.88 214.64,-275.11 204.09,-274.08 205.75,-280.88"/>
</g>
<!-- a14 -->
<g id="node12" class="node">
<title>a14</title>
<ellipse fill="deepskyblue" stroke="black" cx="246.38" cy="-188.61" rx="30.61" ry="30.61"/>
<text text-anchor="start" x="231.38" y="-184.18" font-family="Arial" font-size="14.00">A</text>
<text text-anchor="start" x="240.38" y="-184.18" font-family="Arial" baseline-shift="super" font-size="14.00">(1)</text>
<text text-anchor="start" x="254.62" y="-184.18" font-family="Arial" baseline-shift="sub" font-size="14.00">4</text>
</g>
<!-- x1&#45;&gt;a14 -->
<g id="edge21" class="edge">
<title>x1&#45;&gt;a14</title>
<path fill="none" stroke="black" d="M57.97,-306.61C91.7,-285.36 166.39,-238.34 210.62,-210.49"/>
<polygon fill="black" stroke="black" points="212.22,-213.62 218.82,-205.33 208.49,-207.7 212.22,-213.62"/>
</g>
<!-- a15 -->
<g id="node13" class="node">
<title>a15</title>
<ellipse fill="deepskyblue" stroke="black" cx="246.38" cy="-109.61" rx="30.61" ry="30.61"/>
<text text-anchor="start" x="231.38" y="-105.18" font-family="Arial" font-size="14.00">A</text>
<text text-anchor="start" x="240.38" y="-105.18" font-family="Arial" baseline-shift="super" font-size="14.00">(1)</text>
<text text-anchor="start" x="254.62" y="-105.18" font-family="Arial" baseline-shift="sub" font-size="14.00">5</text>
</g>
<!-- x1&#45;&gt;a15 -->
<g id="edge22" class="edge">
<title>x1&#45;&gt;a15</title>
<path fill="none" stroke="black" d="M54.91,-302.98C88.35,-269.03 171.77,-184.33 216.3,-139.13"/>
<polygon fill="black" stroke="black" points="218.55,-141.83 223.07,-132.25 213.56,-136.91 218.55,-141.83"/>
</g>
<!-- a16 -->
<g id="node14" class="node">
<title>a16</title>
<ellipse fill="deepskyblue" stroke="black" cx="246.38" cy="-30.61" rx="30.61" ry="30.61"/>
<text text-anchor="start" x="231.38" y="-26.18" font-family="Arial" font-size="14.00">A</text>
<text text-anchor="start" x="240.38" y="-26.18" font-family="Arial" baseline-shift="super" font-size="14.00">(1)</text>
<text text-anchor="start" x="254.62" y="-26.18" font-family="Arial" baseline-shift="sub" font-size="14.00">6</text>
</g>
<!-- x1&#45;&gt;a16 -->
<g id="edge23" class="edge">
<title>x1&#45;&gt;a16</title>
<path fill="none" stroke="black" d="M52.7,-300.51C85.74,-254.23 177.37,-125.86 221.3,-64.34"/>
<polygon fill="black" stroke="black" points="224.08,-66.46 227.04,-56.29 218.38,-62.4 224.08,-66.46"/>
</g>
<!-- x3 -->
<g id="node7" class="node">
<title>x3</title>
<ellipse fill="palegreen" stroke="black" cx="39.5" cy="-197.61" rx="21.12" ry="21.12"/>
<text text-anchor="start" x="31.62" y="-193.18" font-family="Arial" font-size="14.00">X</text>
<text text-anchor="start" x="40.62" y="-193.18" font-family="Arial" baseline-shift="sub" font-size="14.00">3</text>
</g>
<!-- x2&#45;&gt;x3 -->
<!-- x2&#45;&gt;a11 -->
<g id="edge24" class="edge">
<title>x2&#45;&gt;a11</title>
<path fill="none" stroke="black" d="M56.58,-270.79C90.29,-298.43 168.92,-362.91 213.34,-399.34"/>
<polygon fill="black" stroke="black" points="210.89,-401.85 220.84,-405.49 215.33,-396.44 210.89,-401.85"/>
</g>
<!-- x2&#45;&gt;a12 -->
<g id="edge25" class="edge">
<title>x2&#45;&gt;a12</title>
<path fill="none" stroke="black" d="M59.41,-265.82C92.92,-280.38 163.35,-310.97 207.27,-330.05"/>
<polygon fill="black" stroke="black" points="205.87,-333.26 216.44,-334.03 208.66,-326.84 205.87,-333.26"/>
</g>
<!-- x2&#45;&gt;a13 -->
<g id="edge26" class="edge">
<title>x2&#45;&gt;a13</title>
<path fill="none" stroke="black" d="M60.89,-258.6C94.18,-260.23 160.81,-263.48 204.22,-265.6"/>
<polygon fill="black" stroke="black" points="203.86,-269.08 214.02,-266.07 204.2,-262.09 203.86,-269.08"/>
</g>
<!-- x2&#45;&gt;a14 -->
<g id="edge27" class="edge">
<title>x2&#45;&gt;a14</title>
<path fill="none" stroke="black" d="M59.77,-251.11C93.13,-239.88 162.24,-216.6 206.07,-201.84"/>
<polygon fill="black" stroke="black" points="207.11,-205.19 215.47,-198.68 204.88,-198.55 207.11,-205.19"/>
</g>
<!-- x2&#45;&gt;a15 -->
<g id="edge28" class="edge">
<title>x2&#45;&gt;a15</title>
<path fill="none" stroke="black" d="M57.27,-245.49C90.92,-221.18 167.27,-166.03 211.66,-133.96"/>
<polygon fill="black" stroke="black" points="213.6,-136.87 219.66,-128.18 209.51,-131.2 213.6,-136.87"/>
</g>
<!-- x2&#45;&gt;a16 -->
<g id="edge29" class="edge">
<title>x2&#45;&gt;a16</title>
<path fill="none" stroke="black" d="M54.26,-242.36C87.61,-205.41 173.25,-110.51 217.69,-61.27"/>
<polygon fill="black" stroke="black" points="220.12,-63.81 224.22,-54.05 214.92,-59.12 220.12,-63.81"/>
</g>
<!-- x4 -->
<g id="node8" class="node">
<title>x4</title>
<ellipse fill="palegreen" stroke="black" cx="39.5" cy="-137.61" rx="21.12" ry="21.12"/>
<text text-anchor="start" x="31.62" y="-133.18" font-family="Arial" font-size="14.00">X</text>
<text text-anchor="start" x="40.62" y="-133.18" font-family="Arial" baseline-shift="sub" font-size="14.00">4</text>
</g>
<!-- x3&#45;&gt;x4 -->
<!-- x3&#45;&gt;a11 -->
<g id="edge30" class="edge">
<title>x3&#45;&gt;a11</title>
<path fill="none" stroke="black" d="M54.26,-212.92C87.61,-250.03 173.25,-345.34 217.69,-394.8"/>
<polygon fill="black" stroke="black" points="214.93,-396.97 224.22,-402.06 220.14,-392.29 214.93,-396.97"/>
</g>
<!-- x3&#45;&gt;a12 -->
<g id="edge31" class="edge">
<title>x3&#45;&gt;a12</title>
<path fill="none" stroke="black" d="M57.27,-209.8C90.92,-234.27 167.27,-289.8 211.66,-322.09"/>
<polygon fill="black" stroke="black" points="209.52,-324.85 219.66,-327.91 213.64,-319.19 209.52,-324.85"/>
</g>
<!-- x3&#45;&gt;a13 -->
<g id="edge32" class="edge">
<title>x3&#45;&gt;a13</title>
<path fill="none" stroke="black" d="M59.77,-204.19C93.13,-215.59 162.24,-239.2 206.07,-254.18"/>
<polygon fill="black" stroke="black" points="204.88,-257.47 215.47,-257.39 207.14,-250.84 204.88,-257.47"/>
</g>
<!-- x3&#45;&gt;a14 -->
<g id="edge33" class="edge">
<title>x3&#45;&gt;a14</title>
<path fill="none" stroke="black" d="M60.89,-196.71C94.18,-195.25 160.81,-192.32 204.22,-190.41"/>
<polygon fill="black" stroke="black" points="204.18,-193.92 214.02,-189.98 203.88,-186.92 204.18,-193.92"/>
</g>
<!-- x3&#45;&gt;a15 -->
<g id="edge34" class="edge">
<title>x3&#45;&gt;a15</title>
<path fill="none" stroke="black" d="M59.41,-189.48C92.92,-175.09 163.35,-144.84 207.27,-125.97"/>
<polygon fill="black" stroke="black" points="208.63,-129.2 216.43,-122.04 205.86,-122.77 208.63,-129.2"/>
</g>
<!-- x3&#45;&gt;a16 -->
<g id="edge35" class="edge">
<title>x3&#45;&gt;a16</title>
<path fill="none" stroke="black" d="M56.58,-184.5C90.29,-157.02 168.92,-92.92 213.34,-56.72"/>
<polygon fill="black" stroke="black" points="215.3,-59.64 220.84,-50.61 210.87,-54.21 215.3,-59.64"/>
</g>
<!-- x4&#45;&gt;a11 -->
<g id="edge36" class="edge">
<title>x4&#45;&gt;a11</title>
<path fill="none" stroke="black" d="M52.4,-154.33C85.15,-200.37 177.1,-329.63 221.19,-391.61"/>
<polygon fill="black" stroke="black" points="218.32,-393.61 226.97,-399.73 224.02,-389.55 218.32,-393.61"/>
</g>
<!-- x4&#45;&gt;a12 -->
<g id="edge37" class="edge">
<title>x4&#45;&gt;a12</title>
<path fill="none" stroke="black" d="M54.91,-152.3C88.35,-186.42 171.77,-271.52 216.3,-316.94"/>
<polygon fill="black" stroke="black" points="213.58,-319.17 223.08,-323.86 218.58,-314.27 213.58,-319.17"/>
</g>
<!-- x4&#45;&gt;a13 -->
<g id="edge38" class="edge">
<title>x4&#45;&gt;a13</title>
<path fill="none" stroke="black" d="M57.97,-148.69C91.7,-170.1 166.39,-217.49 210.62,-245.55"/>
<polygon fill="black" stroke="black" points="208.5,-248.35 218.82,-250.75 212.25,-242.44 208.5,-248.35"/>
</g>
<!-- x4&#45;&gt;a14 -->
<g id="edge39" class="edge">
<title>x4&#45;&gt;a14</title>
<path fill="none" stroke="black" d="M60.52,-142.59C93.98,-150.92 161.87,-167.82 205.41,-178.66"/>
<polygon fill="black" stroke="black" points="204.44,-182.02 214.99,-181.04 206.13,-175.23 204.44,-182.02"/>
</g>
<!-- x4&#45;&gt;a15 -->
<g id="edge40" class="edge">
<title>x4&#45;&gt;a15</title>
<path fill="none" stroke="black" d="M60.89,-134.82C94.27,-130.26 161.18,-121.11 204.58,-115.18"/>
<polygon fill="black" stroke="black" points="204.95,-118.66 214.39,-113.84 204,-111.73 204.95,-118.66"/>
</g>
<!-- x4&#45;&gt;a16 -->
<g id="edge41" class="edge">
<title>x4&#45;&gt;a16</title>
<path fill="none" stroke="black" d="M58.68,-128.11C92.23,-110.59 164.45,-72.87 208.58,-49.82"/>
<polygon fill="black" stroke="black" points="210.04,-53.01 217.28,-45.28 206.79,-46.81 210.04,-53.01"/>
</g>
<!-- a11&#45;&gt;a12 -->
<!-- a11&#45;&gt;a21 -->
<g id="edge42" class="edge">
<title>a11&#45;&gt;a21</title>
<path fill="none" stroke="black" d="M277.22,-425.61C316.68,-425.61 386.4,-425.61 430.88,-425.61"/>
<polygon fill="black" stroke="black" points="430.64,-429.11 440.64,-425.61 430.64,-422.11 430.64,-429.11"/>
</g>
<!-- a22 -->
<g id="node16" class="node">
<title>a22</title>
<ellipse fill="moccasin" stroke="black" cx="473.12" cy="-346.61" rx="30.61" ry="30.61"/>
<text text-anchor="start" x="458.12" y="-342.18" font-family="Arial" font-size="14.00">A</text>
<text text-anchor="start" x="467.12" y="-342.18" font-family="Arial" baseline-shift="super" font-size="14.00">(2)</text>
<text text-anchor="start" x="481.38" y="-342.18" font-family="Arial" baseline-shift="sub" font-size="14.00">2</text>
</g>
<!-- a11&#45;&gt;a22 -->
<g id="edge43" class="edge">
<title>a11&#45;&gt;a22</title>
<path fill="none" stroke="black" d="M275.39,-415.76C315.09,-401.8 387.9,-376.21 432.95,-360.38"/>
<polygon fill="black" stroke="black" points="434.06,-363.69 442.33,-357.08 431.74,-357.09 434.06,-363.69"/>
</g>
<!-- a23 -->
<g id="node17" class="node">
<title>a23</title>
<ellipse fill="moccasin" stroke="black" cx="473.12" cy="-267.61" rx="30.61" ry="30.61"/>
<text text-anchor="start" x="458.12" y="-263.18" font-family="Arial" font-size="14.00">A</text>
<text text-anchor="start" x="467.12" y="-263.18" font-family="Arial" baseline-shift="super" font-size="14.00">(2)</text>
<text text-anchor="start" x="481.38" y="-263.18" font-family="Arial" baseline-shift="sub" font-size="14.00">3</text>
</g>
<!-- a11&#45;&gt;a23 -->
<g id="edge44" class="edge">
<title>a11&#45;&gt;a23</title>
<path fill="none" stroke="black" d="M271.86,-408.4C312.22,-380.02 392.8,-323.37 438.48,-291.26"/>
<polygon fill="black" stroke="black" points="440.27,-294.28 446.44,-285.66 436.24,-288.55 440.27,-294.28"/>
</g>
<!-- a24 -->
<g id="node18" class="node">
<title>a24</title>
<ellipse fill="moccasin" stroke="black" cx="473.12" cy="-188.61" rx="30.61" ry="30.61"/>
<text text-anchor="start" x="458.12" y="-184.18" font-family="Arial" font-size="14.00">A</text>
<text text-anchor="start" x="467.12" y="-184.18" font-family="Arial" baseline-shift="super" font-size="14.00">(2)</text>
<text text-anchor="start" x="481.38" y="-184.18" font-family="Arial" baseline-shift="sub" font-size="14.00">4</text>
</g>
<!-- a11&#45;&gt;a24 -->
<g id="edge45" class="edge">
<title>a11&#45;&gt;a24</title>
<path fill="none" stroke="black" d="M268.12,-403.73C308.51,-361.14 397.77,-267.02 443.66,-218.62"/>
<polygon fill="black" stroke="black" points="446.05,-221.19 450.39,-211.52 440.97,-216.37 446.05,-221.19"/>
</g>
<!-- a25 -->
<g id="node19" class="node">
<title>a25</title>
<ellipse fill="moccasin" stroke="black" cx="473.12" cy="-109.61" rx="30.61" ry="30.61"/>
<text text-anchor="start" x="458.12" y="-105.18" font-family="Arial" font-size="14.00">A</text>
<text text-anchor="start" x="467.12" y="-105.18" font-family="Arial" baseline-shift="super" font-size="14.00">(2)</text>
<text text-anchor="start" x="481.38" y="-105.18" font-family="Arial" baseline-shift="sub" font-size="14.00">5</text>
</g>
<!-- a11&#45;&gt;a25 -->
<g id="edge46" class="edge">
<title>a11&#45;&gt;a25</title>
<path fill="none" stroke="black" d="M265.01,-400.81C304.97,-344.62 402.48,-207.53 447.99,-143.54"/>
<polygon fill="black" stroke="black" points="450.75,-145.7 453.69,-135.52 445.05,-141.64 450.75,-145.7"/>
</g>
<!-- a26 -->
<g id="node20" class="node">
<title>a26</title>
<ellipse fill="moccasin" stroke="black" cx="473.12" cy="-30.61" rx="30.61" ry="30.61"/>
<text text-anchor="start" x="458.12" y="-26.18" font-family="Arial" font-size="14.00">A</text>
<text text-anchor="start" x="467.12" y="-26.18" font-family="Arial" baseline-shift="super" font-size="14.00">(2)</text>
<text text-anchor="start" x="481.38" y="-26.18" font-family="Arial" baseline-shift="sub" font-size="14.00">6</text>
</g>
<!-- a11&#45;&gt;a26 -->
<g id="edge47" class="edge">
<title>a11&#45;&gt;a26</title>
<path fill="none" stroke="black" d="M262.47,-399.07C301.65,-330.21 406.67,-145.65 451.44,-66.96"/>
<polygon fill="black" stroke="black" points="454.44,-68.76 456.35,-58.34 448.36,-65.3 454.44,-68.76"/>
</g>
<!-- a12&#45;&gt;a13 -->
<!-- a12&#45;&gt;a21 -->
<g id="edge48" class="edge">
<title>a12&#45;&gt;a21</title>
<path fill="none" stroke="black" d="M275.39,-356.45C315.09,-370.41 387.9,-396 432.95,-411.83"/>
<polygon fill="black" stroke="black" points="431.74,-415.12 442.33,-415.13 434.06,-408.52 431.74,-415.12"/>
</g>
<!-- a12&#45;&gt;a22 -->
<g id="edge49" class="edge">
<title>a12&#45;&gt;a22</title>
<path fill="none" stroke="black" d="M277.22,-346.61C316.68,-346.61 386.4,-346.61 430.88,-346.61"/>
<polygon fill="black" stroke="black" points="430.64,-350.11 440.64,-346.61 430.64,-343.11 430.64,-350.11"/>
</g>
<!-- a12&#45;&gt;a23 -->
<g id="edge50" class="edge">
<title>a12&#45;&gt;a23</title>
<path fill="none" stroke="black" d="M275.39,-336.76C315.09,-322.8 387.9,-297.21 432.95,-281.38"/>
<polygon fill="black" stroke="black" points="434.06,-284.69 442.33,-278.08 431.74,-278.09 434.06,-284.69"/>
</g>
<!-- a12&#45;&gt;a24 -->
<g id="edge51" class="edge">
<title>a12&#45;&gt;a24</title>
<path fill="none" stroke="black" d="M271.86,-329.4C312.22,-301.02 392.8,-244.37 438.48,-212.26"/>
<polygon fill="black" stroke="black" points="440.27,-215.28 446.44,-206.66 436.24,-209.55 440.27,-215.28"/>
</g>
<!-- a12&#45;&gt;a25 -->
<g id="edge52" class="edge">
<title>a12&#45;&gt;a25</title>
<path fill="none" stroke="black" d="M268.12,-324.73C308.51,-282.14 397.77,-188.02 443.66,-139.62"/>
<polygon fill="black" stroke="black" points="446.05,-142.19 450.39,-132.52 440.97,-137.37 446.05,-142.19"/>
</g>
<!-- a12&#45;&gt;a26 -->
<g id="edge53" class="edge">
<title>a12&#45;&gt;a26</title>
<path fill="none" stroke="black" d="M265.01,-321.81C304.97,-265.62 402.48,-128.53 447.99,-64.54"/>
<polygon fill="black" stroke="black" points="450.75,-66.7 453.69,-56.52 445.05,-62.64 450.75,-66.7"/>
</g>
<!-- a13&#45;&gt;a14 -->
<!-- a13&#45;&gt;a21 -->
<g id="edge54" class="edge">
<title>a13&#45;&gt;a21</title>
<path fill="none" stroke="black" d="M271.86,-284.81C312.22,-313.19 392.8,-369.84 438.48,-401.95"/>
<polygon fill="black" stroke="black" points="436.24,-404.66 446.44,-407.55 440.27,-398.93 436.24,-404.66"/>
</g>
<!-- a13&#45;&gt;a22 -->
<g id="edge55" class="edge">
<title>a13&#45;&gt;a22</title>
<path fill="none" stroke="black" d="M275.39,-277.45C315.09,-291.41 387.9,-317 432.95,-332.83"/>
<polygon fill="black" stroke="black" points="431.74,-336.12 442.33,-336.13 434.06,-329.52 431.74,-336.12"/>
</g>
<!-- a13&#45;&gt;a23 -->
<g id="edge56" class="edge">
<title>a13&#45;&gt;a23</title>
<path fill="none" stroke="black" d="M277.22,-267.61C316.68,-267.61 386.4,-267.61 430.88,-267.61"/>
<polygon fill="black" stroke="black" points="430.64,-271.11 440.64,-267.61 430.64,-264.11 430.64,-271.11"/>
</g>
<!-- a13&#45;&gt;a24 -->
<g id="edge57" class="edge">
<title>a13&#45;&gt;a24</title>
<path fill="none" stroke="black" d="M275.39,-257.76C315.09,-243.8 387.9,-218.21 432.95,-202.38"/>
<polygon fill="black" stroke="black" points="434.06,-205.69 442.33,-199.08 431.74,-199.09 434.06,-205.69"/>
</g>
<!-- a13&#45;&gt;a25 -->
<g id="edge58" class="edge">
<title>a13&#45;&gt;a25</title>
<path fill="none" stroke="black" d="M271.86,-250.4C312.22,-222.02 392.8,-165.37 438.48,-133.26"/>
<polygon fill="black" stroke="black" points="440.27,-136.28 446.44,-127.66 436.24,-130.55 440.27,-136.28"/>
</g>
<!-- a13&#45;&gt;a26 -->
<g id="edge59" class="edge">
<title>a13&#45;&gt;a26</title>
<path fill="none" stroke="black" d="M268.12,-245.73C308.51,-203.14 397.77,-109.02 443.66,-60.62"/>
<polygon fill="black" stroke="black" points="446.05,-63.19 450.39,-53.52 440.97,-58.37 446.05,-63.19"/>
</g>
<!-- a14&#45;&gt;a15 -->
<!-- a14&#45;&gt;a21 -->
<g id="edge60" class="edge">
<title>a14&#45;&gt;a21</title>
<path fill="none" stroke="black" d="M268.12,-210.48C308.51,-253.07 397.77,-347.19 443.66,-395.59"/>
<polygon fill="black" stroke="black" points="440.97,-397.84 450.39,-402.69 446.05,-393.02 440.97,-397.84"/>
</g>
<!-- a14&#45;&gt;a22 -->
<g id="edge61" class="edge">
<title>a14&#45;&gt;a22</title>
<path fill="none" stroke="black" d="M271.86,-205.81C312.22,-234.19 392.8,-290.84 438.48,-322.95"/>
<polygon fill="black" stroke="black" points="436.24,-325.66 446.44,-328.55 440.27,-319.93 436.24,-325.66"/>
</g>
<!-- a14&#45;&gt;a23 -->
<g id="edge62" class="edge">
<title>a14&#45;&gt;a23</title>
<path fill="none" stroke="black" d="M275.39,-198.45C315.09,-212.41 387.9,-238 432.95,-253.83"/>
<polygon fill="black" stroke="black" points="431.74,-257.12 442.33,-257.13 434.06,-250.52 431.74,-257.12"/>
</g>
<!-- a14&#45;&gt;a24 -->
<g id="edge63" class="edge">
<title>a14&#45;&gt;a24</title>
<path fill="none" stroke="black" d="M277.22,-188.61C316.68,-188.61 386.4,-188.61 430.88,-188.61"/>
<polygon fill="black" stroke="black" points="430.64,-192.11 440.64,-188.61 430.64,-185.11 430.64,-192.11"/>
</g>
<!-- a14&#45;&gt;a25 -->
<g id="edge64" class="edge">
<title>a14&#45;&gt;a25</title>
<path fill="none" stroke="black" d="M275.39,-178.76C315.09,-164.8 387.9,-139.21 432.95,-123.38"/>
<polygon fill="black" stroke="black" points="434.06,-126.69 442.33,-120.08 431.74,-120.09 434.06,-126.69"/>
</g>
<!-- a14&#45;&gt;a26 -->
<g id="edge65" class="edge">
<title>a14&#45;&gt;a26</title>
<path fill="none" stroke="black" d="M271.86,-171.4C312.22,-143.02 392.8,-86.37 438.48,-54.26"/>
<polygon fill="black" stroke="black" points="440.27,-57.28 446.44,-48.66 436.24,-51.55 440.27,-57.28"/>
</g>
<!-- a15&#45;&gt;a16 -->
<!-- a15&#45;&gt;a21 -->
<g id="edge66" class="edge">
<title>a15&#45;&gt;a21</title>
<path fill="none" stroke="black" d="M265.01,-134.4C304.97,-190.59 402.48,-327.68 447.99,-391.67"/>
<polygon fill="black" stroke="black" points="445.05,-393.57 453.69,-399.69 450.75,-389.51 445.05,-393.57"/>
</g>
<!-- a15&#45;&gt;a22 -->
<g id="edge67" class="edge">
<title>a15&#45;&gt;a22</title>
<path fill="none" stroke="black" d="M268.12,-131.48C308.51,-174.07 397.77,-268.19 443.66,-316.59"/>
<polygon fill="black" stroke="black" points="440.97,-318.84 450.39,-323.69 446.05,-314.02 440.97,-318.84"/>
</g>
<!-- a15&#45;&gt;a23 -->
<g id="edge68" class="edge">
<title>a15&#45;&gt;a23</title>
<path fill="none" stroke="black" d="M271.86,-126.81C312.22,-155.19 392.8,-211.84 438.48,-243.95"/>
<polygon fill="black" stroke="black" points="436.24,-246.66 446.44,-249.55 440.27,-240.93 436.24,-246.66"/>
</g>
<!-- a15&#45;&gt;a24 -->
<g id="edge69" class="edge">
<title>a15&#45;&gt;a24</title>
<path fill="none" stroke="black" d="M275.39,-119.45C315.09,-133.41 387.9,-159 432.95,-174.83"/>
<polygon fill="black" stroke="black" points="431.74,-178.12 442.33,-178.13 434.06,-171.52 431.74,-178.12"/>
</g>
<!-- a15&#45;&gt;a25 -->
<g id="edge70" class="edge">
<title>a15&#45;&gt;a25</title>
<path fill="none" stroke="black" d="M277.22,-109.61C316.68,-109.61 386.4,-109.61 430.88,-109.61"/>
<polygon fill="black" stroke="black" points="430.64,-113.11 440.64,-109.61 430.64,-106.11 430.64,-113.11"/>
</g>
<!-- a15&#45;&gt;a26 -->
<g id="edge71" class="edge">
<title>a15&#45;&gt;a26</title>
<path fill="none" stroke="black" d="M275.39,-99.76C315.09,-85.8 387.9,-60.21 432.95,-44.38"/>
<polygon fill="black" stroke="black" points="434.06,-47.69 442.33,-41.08 431.74,-41.09 434.06,-47.69"/>
</g>
<!-- a16&#45;&gt;a21 -->
<g id="edge72" class="edge">
<title>a16&#45;&gt;a21</title>
<path fill="none" stroke="black" d="M262.47,-57.14C301.65,-126 406.67,-310.56 451.44,-389.25"/>
<polygon fill="black" stroke="black" points="448.36,-390.91 456.35,-397.87 454.44,-387.45 448.36,-390.91"/>
</g>
<!-- a16&#45;&gt;a22 -->
<g id="edge73" class="edge">
<title>a16&#45;&gt;a22</title>
<path fill="none" stroke="black" d="M265.01,-55.4C304.97,-111.59 402.48,-248.68 447.99,-312.67"/>
<polygon fill="black" stroke="black" points="445.05,-314.57 453.69,-320.69 450.75,-310.51 445.05,-314.57"/>
</g>
<!-- a16&#45;&gt;a23 -->
<g id="edge74" class="edge">
<title>a16&#45;&gt;a23</title>
<path fill="none" stroke="black" d="M268.12,-52.48C308.51,-95.07 397.77,-189.19 443.66,-237.59"/>
<polygon fill="black" stroke="black" points="440.97,-239.84 450.39,-244.69 446.05,-235.02 440.97,-239.84"/>
</g>
<!-- a16&#45;&gt;a24 -->
<g id="edge75" class="edge">
<title>a16&#45;&gt;a24</title>
<path fill="none" stroke="black" d="M271.86,-47.81C312.22,-76.19 392.8,-132.84 438.48,-164.95"/>
<polygon fill="black" stroke="black" points="436.24,-167.66 446.44,-170.55 440.27,-161.93 436.24,-167.66"/>
</g>
<!-- a16&#45;&gt;a25 -->
<g id="edge76" class="edge">
<title>a16&#45;&gt;a25</title>
<path fill="none" stroke="black" d="M275.39,-40.45C315.09,-54.41 387.9,-80 432.95,-95.83"/>
<polygon fill="black" stroke="black" points="431.74,-99.12 442.33,-99.13 434.06,-92.52 431.74,-99.12"/>
</g>
<!-- a16&#45;&gt;a26 -->
<g id="edge77" class="edge">
<title>a16&#45;&gt;a26</title>
<path fill="none" stroke="black" d="M277.22,-30.61C316.68,-30.61 386.4,-30.61 430.88,-30.61"/>
<polygon fill="black" stroke="black" points="430.64,-34.11 440.64,-30.61 430.64,-27.11 430.64,-34.11"/>
</g>
<!-- a21&#45;&gt;a22 -->
<!-- a21&#45;&gt;y -->
<g id="edge78" class="edge">
<title>a21&#45;&gt;y</title>
<path fill="none" stroke="black" d="M495.86,-405.16C536.49,-366.95 623.44,-285.15 663.56,-247.42"/>
<polygon fill="black" stroke="black" points="665.83,-250.09 670.71,-240.69 661.03,-244.99 665.83,-250.09"/>
</g>
<!-- a22&#45;&gt;a23 -->
<!-- a22&#45;&gt;y -->
<g id="edge79" class="edge">
<title>a22&#45;&gt;y</title>
<path fill="none" stroke="black" d="M500.36,-331.77C541.23,-308.67 619.57,-264.38 659.66,-241.72"/>
<polygon fill="black" stroke="black" points="661.13,-244.91 668.11,-236.94 657.69,-238.81 661.13,-244.91"/>
</g>
<!-- a23&#45;&gt;a24 -->
<!-- a23&#45;&gt;y -->
<g id="edge80" class="edge">
<title>a23&#45;&gt;y</title>
<path fill="none" stroke="black" d="M503.39,-262.04C543.83,-254.36 616.32,-240.59 656.27,-232.99"/>
<polygon fill="black" stroke="black" points="656.89,-236.44 666.06,-231.13 655.58,-229.56 656.89,-236.44"/>
</g>
<!-- a24&#45;&gt;a25 -->
<!-- a24&#45;&gt;y -->
<g id="edge81" class="edge">
<title>a24&#45;&gt;y</title>
<path fill="none" stroke="black" d="M503.39,-194.03C543.83,-201.52 616.32,-214.95 656.27,-222.35"/>
<polygon fill="black" stroke="black" points="655.59,-225.79 666.06,-224.17 656.87,-218.9 655.59,-225.79"/>
</g>
<!-- a25&#45;&gt;a26 -->
<!-- a25&#45;&gt;y -->
<g id="edge82" class="edge">
<title>a25&#45;&gt;y</title>
<path fill="none" stroke="black" d="M500.36,-124.31C541.15,-147.17 619.24,-190.95 659.4,-213.46"/>
<polygon fill="black" stroke="black" points="657.68,-216.51 668.11,-218.35 661.1,-210.4 657.68,-216.51"/>
</g>
<!-- a26&#45;&gt;y -->
<g id="edge83" class="edge">
<title>a26&#45;&gt;y</title>
<path fill="none" stroke="black" d="M496.25,-51.32C537.08,-89.52 623.71,-170.6 663.65,-207.98"/>
<polygon fill="black" stroke="black" points="661.07,-210.36 670.77,-214.64 665.86,-205.25 661.07,-210.36"/>
</g>
</g>
</svg>
