<?xml version="1.0" encoding="UTF-8" standalone="no"?>
<!DOCTYPE svg PUBLIC "-//W3C//DTD SVG 1.1//EN"
 "http://www.w3.org/Graphics/SVG/1.1/DTD/svg11.dtd">
<!-- Generated by graphviz version 12.2.1 (20241206.2353)
 -->
<!-- Title: g Pages: 1 -->
<svg width="904pt" height="576pt"
 viewBox="0.00 0.00 904.35 575.80" xmlns="http://www.w3.org/2000/svg" xmlns:xlink="http://www.w3.org/1999/xlink">
<g id="graph0" class="graph" transform="scale(1 1) rotate(0) translate(4 571.8)">
<title>g</title>
<polygon fill="#f9f9f9" stroke="none" points="-4,4 -4,-571.8 900.35,-571.8 900.35,4 -4,4"/>
<!-- label_x -->
<g id="node1" class="node">
<title>label_x</title>
<polygon fill="none" stroke="none" points="68.3,-567.8 10.7,-567.8 10.7,-531.8 68.3,-531.8 68.3,-567.8"/>
<text text-anchor="middle" x="39.5" y="-544.38" font-family="Arial" font-size="14.00">Input layer</text>
</g>
<!-- x1 -->
<g id="node5" class="node">
<title>x1</title>
<ellipse fill="palegreen" stroke="black" cx="39.5" cy="-484.8" rx="28.8" ry="28.8"/>
<text text-anchor="start" x="31.62" y="-480.38" font-family="Arial" font-size="14.00">X</text>
<text text-anchor="start" x="40.62" y="-480.38" font-family="Arial" baseline-shift="sub" font-size="14.00">1</text>
</g>
<!-- label_x&#45;&gt;x1 -->
<!-- label_a1 -->
<g id="node2" class="node">
<title>label_a1</title>
<polygon fill="none" stroke="none" points="275.18,-529.8 217.57,-529.8 217.57,-493.8 275.18,-493.8 275.18,-529.8"/>
<text text-anchor="middle" x="246.38" y="-506.37" font-family="Arial" font-size="14.00">Hidden layer L₁</text>
</g>
<!-- a11 -->
<g id="node12" class="node">
<title>a11</title>
<ellipse fill="deepskyblue" stroke="black" cx="246.38" cy="-446.8" rx="28.8" ry="28.8"/>
<text text-anchor="start" x="231.38" y="-442.38" font-family="Arial" font-size="14.00">A</text>
<text text-anchor="start" x="240.38" y="-442.38" font-family="Arial" baseline-shift="super" font-size="14.00">(1)</text>
<text text-anchor="start" x="254.62" y="-442.38" font-family="Arial" baseline-shift="sub" font-size="14.00">1</text>
</g>
<!-- label_a1&#45;&gt;a11 -->
<!-- label_a2 -->
<g id="node3" class="node">
<title>label_a2</title>
<polygon fill="none" stroke="none" points="501.93,-491.8 444.32,-491.8 444.32,-455.8 501.93,-455.8 501.93,-491.8"/>
<text text-anchor="middle" x="473.12" y="-468.38" font-family="Arial" font-size="14.00">Hidden layer L₂</text>
</g>
<!-- a21 -->
<g id="node18" class="node">
<title>a21</title>
<ellipse fill="moccasin" stroke="black" cx="473.12" cy="-408.8" rx="28.8" ry="28.8"/>
<text text-anchor="start" x="458.12" y="-404.38" font-family="Arial" font-size="14.00">A</text>
<text text-anchor="start" x="467.12" y="-404.38" font-family="Arial" baseline-shift="super" font-size="14.00">(2)</text>
<text text-anchor="start" x="481.38" y="-404.38" font-family="Arial" baseline-shift="sub" font-size="14.00">1</text>
</g>
<!-- label_a2&#45;&gt;a21 -->
<!-- label_f -->
<g id="node4" class="node">
<title>label_f</title>
<polygon fill="none" stroke="none" points="714.42,-453.8 656.83,-453.8 656.83,-417.8 714.42,-417.8 714.42,-453.8"/>
<text text-anchor="middle" x="685.62" y="-430.38" font-family="Arial" font-size="14.00">Output layer</text>
</g>
<!-- f0 -->
<g id="node23" class="node">
<title>f0</title>
<ellipse fill="pink" stroke="black" cx="685.62" cy="-370.8" rx="28.8" ry="28.8"/>
<text text-anchor="middle" x="685.62" y="-365.38" font-family="Arial" font-size="14.00">f₀(X)</text>
</g>
<!-- label_f&#45;&gt;f0 -->
<!-- x2 -->
<g id="node6" class="node">
<title>x2</title>
<ellipse fill="palegreen" stroke="black" cx="39.5" cy="-408.8" rx="28.8" ry="28.8"/>
<text text-anchor="start" x="31.62" y="-404.38" font-family="Arial" font-size="14.00">X</text>
<text text-anchor="start" x="40.62" y="-404.38" font-family="Arial" baseline-shift="sub" font-size="14.00">2</text>
</g>
<!-- x1&#45;&gt;x2 -->
<!-- x1&#45;&gt;a11 -->
<g id="edge26" class="edge">
<title>x1&#45;&gt;a11</title>
<path fill="none" stroke="black" d="M67.71,-479.75C103.45,-473.12 166.42,-461.44 207,-453.92"/>
<polygon fill="black" stroke="black" points="207.37,-457.41 216.57,-452.14 206.1,-450.53 207.37,-457.41"/>
</g>
<!-- a12 -->
<g id="node13" class="node">
<title>a12</title>
<ellipse fill="deepskyblue" stroke="black" cx="246.38" cy="-370.8" rx="28.8" ry="28.8"/>
<text text-anchor="start" x="231.38" y="-366.38" font-family="Arial" font-size="14.00">A</text>
<text text-anchor="start" x="240.38" y="-366.38" font-family="Arial" baseline-shift="super" font-size="14.00">(1)</text>
<text text-anchor="start" x="254.62" y="-366.38" font-family="Arial" baseline-shift="sub" font-size="14.00">2</text>
</g>
<!-- x1&#45;&gt;a12 -->
<g id="edge27" class="edge">
<title>x1&#45;&gt;a12</title>
<path fill="none" stroke="black" d="M64.81,-471.28C101.16,-451.05 169.82,-412.84 211.2,-389.81"/>
<polygon fill="black" stroke="black" points="212.74,-392.96 219.78,-385.04 209.34,-386.85 212.74,-392.96"/>
</g>
<!-- a13 -->
<g id="node14" class="node">
<title>a13</title>
<ellipse fill="deepskyblue" stroke="black" cx="246.38" cy="-294.8" rx="28.8" ry="28.8"/>
<text text-anchor="start" x="231.38" y="-290.38" font-family="Arial" font-size="14.00">A</text>
<text text-anchor="start" x="240.38" y="-290.38" font-family="Arial" baseline-shift="super" font-size="14.00">(1)</text>
<text text-anchor="start" x="254.62" y="-290.38" font-family="Arial" baseline-shift="sub" font-size="14.00">3</text>
</g>
<!-- x1&#45;&gt;a13 -->
<g id="edge28" class="edge">
<title>x1&#45;&gt;a13</title>
<path fill="none" stroke="black" d="M60.89,-465.89C97.56,-431.89 174.68,-360.36 216.67,-321.42"/>
<polygon fill="black" stroke="black" points="219,-324.03 223.95,-314.67 214.24,-318.9 219,-324.03"/>
</g>
<!-- a14 -->
<g id="node15" class="node">
<title>a14</title>
<ellipse fill="deepskyblue" stroke="black" cx="246.38" cy="-218.8" rx="28.8" ry="28.8"/>
<text text-anchor="start" x="231.38" y="-214.38" font-family="Arial" font-size="14.00">A</text>
<text text-anchor="start" x="240.38" y="-214.38" font-family="Arial" baseline-shift="super" font-size="14.00">(1)</text>
<text text-anchor="start" x="254.62" y="-214.38" font-family="Arial" baseline-shift="sub" font-size="14.00">4</text>
</g>
<!-- x1&#45;&gt;a14 -->
<g id="edge29" class="edge">
<title>x1&#45;&gt;a14</title>
<path fill="none" stroke="black" d="M57.62,-462.58C94.16,-415.13 179.89,-303.82 221.66,-249.59"/>
<polygon fill="black" stroke="black" points="224.2,-252.03 227.53,-241.97 218.65,-247.76 224.2,-252.03"/>
</g>
<!-- a1dot -->
<g id="node16" class="node">
<title>a1dot</title>
<ellipse fill="deepskyblue" stroke="black" cx="246.38" cy="-142.8" rx="28.8" ry="28.8"/>
<text text-anchor="middle" x="246.38" y="-137.38" font-family="Arial" font-size="14.00">⋮</text>
</g>
<!-- x1&#45;&gt;a1dot -->
<g id="edge30" class="edge">
<title>x1&#45;&gt;a1dot</title>
<path fill="none" stroke="black" d="M54.91,-460.75C90.76,-400.9 184.07,-245.14 225.29,-176.32"/>
<polygon fill="black" stroke="black" points="228.07,-178.5 230.21,-168.12 222.07,-174.9 228.07,-178.5"/>
</g>
<!-- ak1 -->
<g id="node17" class="node">
<title>ak1</title>
<ellipse fill="deepskyblue" stroke="black" cx="246.38" cy="-66.8" rx="28.8" ry="28.8"/>
<text text-anchor="start" x="223.12" y="-62.38" font-family="Arial" font-size="14.00">A</text>
<text text-anchor="start" x="232.12" y="-62.38" font-family="Arial" baseline-shift="super" font-size="14.00">(1)</text>
<text text-anchor="start" x="246.38" y="-62.38" font-family="Arial" baseline-shift="sub" font-size="14.00">K₁</text>
</g>
<!-- x1&#45;&gt;ak1 -->
<g id="edge31" class="edge">
<title>x1&#45;&gt;ak1</title>
<path fill="none" stroke="black" d="M52.85,-459.59C87.83,-388.24 187.6,-184.67 228.04,-102.17"/>
<polygon fill="black" stroke="black" points="231.08,-103.92 232.34,-93.4 224.79,-100.84 231.08,-103.92"/>
</g>
<!-- x3 -->
<g id="node7" class="node">
<title>x3</title>
<ellipse fill="palegreen" stroke="black" cx="39.5" cy="-332.8" rx="28.8" ry="28.8"/>
<text text-anchor="start" x="31.62" y="-328.38" font-family="Arial" font-size="14.00">X</text>
<text text-anchor="start" x="40.62" y="-328.38" font-family="Arial" baseline-shift="sub" font-size="14.00">3</text>
</g>
<!-- x2&#45;&gt;x3 -->
<!-- x2&#45;&gt;a11 -->
<g id="edge32" class="edge">
<title>x2&#45;&gt;a11</title>
<path fill="none" stroke="black" d="M67.71,-413.85C103.45,-420.48 166.42,-432.16 207,-439.68"/>
<polygon fill="black" stroke="black" points="206.1,-443.07 216.57,-441.46 207.37,-436.19 206.1,-443.07"/>
</g>
<!-- x2&#45;&gt;a12 -->
<g id="edge33" class="edge">
<title>x2&#45;&gt;a12</title>
<path fill="none" stroke="black" d="M67.71,-403.75C103.45,-397.12 166.42,-385.44 207,-377.92"/>
<polygon fill="black" stroke="black" points="207.37,-381.41 216.57,-376.14 206.1,-374.53 207.37,-381.41"/>
</g>
<!-- x2&#45;&gt;a13 -->
<g id="edge34" class="edge">
<title>x2&#45;&gt;a13</title>
<path fill="none" stroke="black" d="M64.81,-395.28C101.16,-375.05 169.82,-336.84 211.2,-313.81"/>
<polygon fill="black" stroke="black" points="212.74,-316.96 219.78,-309.04 209.34,-310.85 212.74,-316.96"/>
</g>
<!-- x2&#45;&gt;a14 -->
<g id="edge35" class="edge">
<title>x2&#45;&gt;a14</title>
<path fill="none" stroke="black" d="M60.89,-389.89C97.56,-355.89 174.68,-284.36 216.67,-245.42"/>
<polygon fill="black" stroke="black" points="219,-248.03 223.95,-238.67 214.24,-242.9 219,-248.03"/>
</g>
<!-- x2&#45;&gt;a1dot -->
<g id="edge36" class="edge">
<title>x2&#45;&gt;a1dot</title>
<path fill="none" stroke="black" d="M57.62,-386.58C94.16,-339.13 179.89,-227.82 221.66,-173.59"/>
<polygon fill="black" stroke="black" points="224.2,-176.03 227.53,-165.97 218.65,-171.76 224.2,-176.03"/>
</g>
<!-- x2&#45;&gt;ak1 -->
<g id="edge37" class="edge">
<title>x2&#45;&gt;ak1</title>
<path fill="none" stroke="black" d="M54.91,-384.75C90.76,-324.9 184.07,-169.14 225.29,-100.32"/>
<polygon fill="black" stroke="black" points="228.07,-102.5 230.21,-92.12 222.07,-98.9 228.07,-102.5"/>
</g>
<!-- x4 -->
<g id="node8" class="node">
<title>x4</title>
<ellipse fill="palegreen" stroke="black" cx="39.5" cy="-256.8" rx="28.8" ry="28.8"/>
<text text-anchor="start" x="31.62" y="-252.38" font-family="Arial" font-size="14.00">X</text>
<text text-anchor="start" x="40.62" y="-252.38" font-family="Arial" baseline-shift="sub" font-size="14.00">4</text>
</g>
<!-- x3&#45;&gt;x4 -->
<!-- x3&#45;&gt;a11 -->
<g id="edge38" class="edge">
<title>x3&#45;&gt;a11</title>
<path fill="none" stroke="black" d="M64.81,-346.32C101.16,-366.55 169.82,-404.76 211.2,-427.79"/>
<polygon fill="black" stroke="black" points="209.34,-430.75 219.78,-432.56 212.74,-424.64 209.34,-430.75"/>
</g>
<!-- x3&#45;&gt;a12 -->
<g id="edge39" class="edge">
<title>x3&#45;&gt;a12</title>
<path fill="none" stroke="black" d="M67.71,-337.85C103.45,-344.48 166.42,-356.16 207,-363.68"/>
<polygon fill="black" stroke="black" points="206.1,-367.07 216.57,-365.46 207.37,-360.19 206.1,-367.07"/>
</g>
<!-- x3&#45;&gt;a13 -->
<g id="edge40" class="edge">
<title>x3&#45;&gt;a13</title>
<path fill="none" stroke="black" d="M67.71,-327.75C103.45,-321.12 166.42,-309.44 207,-301.92"/>
<polygon fill="black" stroke="black" points="207.37,-305.41 216.57,-300.14 206.1,-298.53 207.37,-305.41"/>
</g>
<!-- x3&#45;&gt;a14 -->
<g id="edge41" class="edge">
<title>x3&#45;&gt;a14</title>
<path fill="none" stroke="black" d="M64.81,-319.28C101.16,-299.05 169.82,-260.84 211.2,-237.81"/>
<polygon fill="black" stroke="black" points="212.74,-240.96 219.78,-233.04 209.34,-234.85 212.74,-240.96"/>
</g>
<!-- x3&#45;&gt;a1dot -->
<g id="edge42" class="edge">
<title>x3&#45;&gt;a1dot</title>
<path fill="none" stroke="black" d="M60.89,-313.89C97.56,-279.89 174.68,-208.36 216.67,-169.42"/>
<polygon fill="black" stroke="black" points="219,-172.03 223.95,-162.67 214.24,-166.9 219,-172.03"/>
</g>
<!-- x3&#45;&gt;ak1 -->
<g id="edge43" class="edge">
<title>x3&#45;&gt;ak1</title>
<path fill="none" stroke="black" d="M57.62,-310.58C94.16,-263.13 179.89,-151.82 221.66,-97.59"/>
<polygon fill="black" stroke="black" points="224.2,-100.03 227.53,-89.97 218.65,-95.76 224.2,-100.03"/>
</g>
<!-- x5 -->
<g id="node9" class="node">
<title>x5</title>
<ellipse fill="palegreen" stroke="black" cx="39.5" cy="-180.8" rx="28.8" ry="28.8"/>
<text text-anchor="start" x="31.62" y="-176.38" font-family="Arial" font-size="14.00">X</text>
<text text-anchor="start" x="40.62" y="-176.38" font-family="Arial" baseline-shift="sub" font-size="14.00">5</text>
</g>
<!-- x4&#45;&gt;x5 -->
<!-- x4&#45;&gt;a11 -->
<g id="edge44" class="edge">
<title>x4&#45;&gt;a11</title>
<path fill="none" stroke="black" d="M60.89,-275.71C97.56,-309.71 174.68,-381.24 216.67,-420.18"/>
<polygon fill="black" stroke="black" points="214.24,-422.7 223.95,-426.93 219,-417.57 214.24,-422.7"/>
</g>
<!-- x4&#45;&gt;a12 -->
<g id="edge45" class="edge">
<title>x4&#45;&gt;a12</title>
<path fill="none" stroke="black" d="M64.81,-270.32C101.16,-290.55 169.82,-328.76 211.2,-351.79"/>
<polygon fill="black" stroke="black" points="209.34,-354.75 219.78,-356.56 212.74,-348.64 209.34,-354.75"/>
</g>
<!-- x4&#45;&gt;a13 -->
<g id="edge46" class="edge">
<title>x4&#45;&gt;a13</title>
<path fill="none" stroke="black" d="M67.71,-261.85C103.45,-268.48 166.42,-280.16 207,-287.68"/>
<polygon fill="black" stroke="black" points="206.1,-291.07 216.57,-289.46 207.37,-284.19 206.1,-291.07"/>
</g>
<!-- x4&#45;&gt;a14 -->
<g id="edge47" class="edge">
<title>x4&#45;&gt;a14</title>
<path fill="none" stroke="black" d="M67.71,-251.75C103.45,-245.12 166.42,-233.44 207,-225.92"/>
<polygon fill="black" stroke="black" points="207.37,-229.41 216.57,-224.14 206.1,-222.53 207.37,-229.41"/>
</g>
<!-- x4&#45;&gt;a1dot -->
<g id="edge48" class="edge">
<title>x4&#45;&gt;a1dot</title>
<path fill="none" stroke="black" d="M64.81,-243.28C101.16,-223.05 169.82,-184.84 211.2,-161.81"/>
<polygon fill="black" stroke="black" points="212.74,-164.96 219.78,-157.04 209.34,-158.85 212.74,-164.96"/>
</g>
<!-- x4&#45;&gt;ak1 -->
<g id="edge49" class="edge">
<title>x4&#45;&gt;ak1</title>
<path fill="none" stroke="black" d="M60.89,-237.89C97.56,-203.89 174.68,-132.36 216.67,-93.42"/>
<polygon fill="black" stroke="black" points="219,-96.03 223.95,-86.67 214.24,-90.9 219,-96.03"/>
</g>
<!-- xdot -->
<g id="node10" class="node">
<title>xdot</title>
<ellipse fill="palegreen" stroke="black" cx="39.5" cy="-104.8" rx="28.8" ry="28.8"/>
<text text-anchor="middle" x="39.5" y="-99.38" font-family="Arial" font-size="14.00">⋮</text>
</g>
<!-- x5&#45;&gt;xdot -->
<!-- x5&#45;&gt;a11 -->
<g id="edge50" class="edge">
<title>x5&#45;&gt;a11</title>
<path fill="none" stroke="black" d="M57.62,-203.02C94.16,-250.47 179.89,-361.78 221.66,-416.01"/>
<polygon fill="black" stroke="black" points="218.65,-417.84 227.53,-423.63 224.2,-413.57 218.65,-417.84"/>
</g>
<!-- x5&#45;&gt;a12 -->
<g id="edge51" class="edge">
<title>x5&#45;&gt;a12</title>
<path fill="none" stroke="black" d="M60.89,-199.71C97.56,-233.71 174.68,-305.24 216.67,-344.18"/>
<polygon fill="black" stroke="black" points="214.24,-346.7 223.95,-350.93 219,-341.57 214.24,-346.7"/>
</g>
<!-- x5&#45;&gt;a13 -->
<g id="edge52" class="edge">
<title>x5&#45;&gt;a13</title>
<path fill="none" stroke="black" d="M64.81,-194.32C101.16,-214.55 169.82,-252.76 211.2,-275.79"/>
<polygon fill="black" stroke="black" points="209.34,-278.75 219.78,-280.56 212.74,-272.64 209.34,-278.75"/>
</g>
<!-- x5&#45;&gt;a14 -->
<g id="edge53" class="edge">
<title>x5&#45;&gt;a14</title>
<path fill="none" stroke="black" d="M67.71,-185.85C103.45,-192.48 166.42,-204.16 207,-211.68"/>
<polygon fill="black" stroke="black" points="206.1,-215.07 216.57,-213.46 207.37,-208.19 206.1,-215.07"/>
</g>
<!-- x5&#45;&gt;a1dot -->
<g id="edge54" class="edge">
<title>x5&#45;&gt;a1dot</title>
<path fill="none" stroke="black" d="M67.71,-175.75C103.45,-169.12 166.42,-157.44 207,-149.92"/>
<polygon fill="black" stroke="black" points="207.37,-153.41 216.57,-148.14 206.1,-146.53 207.37,-153.41"/>
</g>
<!-- x5&#45;&gt;ak1 -->
<g id="edge55" class="edge">
<title>x5&#45;&gt;ak1</title>
<path fill="none" stroke="black" d="M64.81,-167.28C101.16,-147.05 169.82,-108.84 211.2,-85.81"/>
<polygon fill="black" stroke="black" points="212.74,-88.96 219.78,-81.04 209.34,-82.85 212.74,-88.96"/>
</g>
<!-- xp -->
<g id="node11" class="node">
<title>xp</title>
<ellipse fill="palegreen" stroke="black" cx="39.5" cy="-28.8" rx="28.8" ry="28.8"/>
<text text-anchor="start" x="31.62" y="-24.37" font-family="Arial" font-size="14.00">X</text>
<text text-anchor="start" x="40.62" y="-24.37" font-family="Arial" baseline-shift="sub" font-size="14.00">p</text>
</g>
<!-- xdot&#45;&gt;xp -->
<!-- xdot&#45;&gt;a11 -->
<g id="edge56" class="edge">
<title>xdot&#45;&gt;a11</title>
<path fill="none" stroke="black" d="M54.91,-128.85C90.76,-188.7 184.07,-344.46 225.29,-413.28"/>
<polygon fill="black" stroke="black" points="222.07,-414.7 230.21,-421.48 228.07,-411.1 222.07,-414.7"/>
</g>
<!-- xdot&#45;&gt;a12 -->
<g id="edge57" class="edge">
<title>xdot&#45;&gt;a12</title>
<path fill="none" stroke="black" d="M57.62,-127.02C94.16,-174.47 179.89,-285.78 221.66,-340.01"/>
<polygon fill="black" stroke="black" points="218.65,-341.84 227.53,-347.63 224.2,-337.57 218.65,-341.84"/>
</g>
<!-- xdot&#45;&gt;a13 -->
<g id="edge58" class="edge">
<title>xdot&#45;&gt;a13</title>
<path fill="none" stroke="black" d="M60.89,-123.71C97.56,-157.71 174.68,-229.24 216.67,-268.18"/>
<polygon fill="black" stroke="black" points="214.24,-270.7 223.95,-274.93 219,-265.57 214.24,-270.7"/>
</g>
<!-- xdot&#45;&gt;a14 -->
<g id="edge59" class="edge">
<title>xdot&#45;&gt;a14</title>
<path fill="none" stroke="black" d="M64.81,-118.32C101.16,-138.55 169.82,-176.76 211.2,-199.79"/>
<polygon fill="black" stroke="black" points="209.34,-202.75 219.78,-204.56 212.74,-196.64 209.34,-202.75"/>
</g>
<!-- xdot&#45;&gt;a1dot -->
<g id="edge60" class="edge">
<title>xdot&#45;&gt;a1dot</title>
<path fill="none" stroke="black" d="M67.71,-109.85C103.45,-116.48 166.42,-128.16 207,-135.68"/>
<polygon fill="black" stroke="black" points="206.1,-139.07 216.57,-137.46 207.37,-132.19 206.1,-139.07"/>
</g>
<!-- xdot&#45;&gt;ak1 -->
<g id="edge61" class="edge">
<title>xdot&#45;&gt;ak1</title>
<path fill="none" stroke="black" d="M67.71,-99.75C103.45,-93.12 166.42,-81.44 207,-73.92"/>
<polygon fill="black" stroke="black" points="207.37,-77.41 216.57,-72.14 206.1,-70.53 207.37,-77.41"/>
</g>
<!-- xp&#45;&gt;a11 -->
<g id="edge62" class="edge">
<title>xp&#45;&gt;a11</title>
<path fill="none" stroke="black" d="M52.85,-54.01C87.83,-125.36 187.6,-328.93 228.04,-411.43"/>
<polygon fill="black" stroke="black" points="224.79,-412.76 232.34,-420.2 231.08,-409.68 224.79,-412.76"/>
</g>
<!-- xp&#45;&gt;a12 -->
<g id="edge63" class="edge">
<title>xp&#45;&gt;a12</title>
<path fill="none" stroke="black" d="M54.91,-52.85C90.76,-112.7 184.07,-268.46 225.29,-337.28"/>
<polygon fill="black" stroke="black" points="222.07,-338.7 230.21,-345.48 228.07,-335.1 222.07,-338.7"/>
</g>
<!-- xp&#45;&gt;a13 -->
<g id="edge64" class="edge">
<title>xp&#45;&gt;a13</title>
<path fill="none" stroke="black" d="M57.62,-51.02C94.16,-98.47 179.89,-209.78 221.66,-264.01"/>
<polygon fill="black" stroke="black" points="218.65,-265.84 227.53,-271.63 224.2,-261.57 218.65,-265.84"/>
</g>
<!-- xp&#45;&gt;a14 -->
<g id="edge65" class="edge">
<title>xp&#45;&gt;a14</title>
<path fill="none" stroke="black" d="M60.89,-47.71C97.56,-81.71 174.68,-153.24 216.67,-192.18"/>
<polygon fill="black" stroke="black" points="214.24,-194.7 223.95,-198.93 219,-189.57 214.24,-194.7"/>
</g>
<!-- xp&#45;&gt;a1dot -->
<g id="edge66" class="edge">
<title>xp&#45;&gt;a1dot</title>
<path fill="none" stroke="black" d="M64.81,-42.32C101.16,-62.55 169.82,-100.76 211.2,-123.79"/>
<polygon fill="black" stroke="black" points="209.34,-126.75 219.78,-128.56 212.74,-120.64 209.34,-126.75"/>
</g>
<!-- xp&#45;&gt;ak1 -->
<g id="edge67" class="edge">
<title>xp&#45;&gt;ak1</title>
<path fill="none" stroke="black" d="M67.71,-33.85C103.45,-40.48 166.42,-52.16 207,-59.68"/>
<polygon fill="black" stroke="black" points="206.1,-63.07 216.57,-61.46 207.37,-56.19 206.1,-63.07"/>
</g>
<!-- a11&#45;&gt;a12 -->
<!-- a11&#45;&gt;a21 -->
<g id="edge68" class="edge">
<title>a11&#45;&gt;a21</title>
<path fill="none" stroke="black" d="M274.49,-442.22C314.22,-435.5 388.47,-422.94 433.79,-415.28"/>
<polygon fill="black" stroke="black" points="434.15,-418.77 443.43,-413.65 432.98,-411.87 434.15,-418.77"/>
</g>
<!-- a22 -->
<g id="node19" class="node">
<title>a22</title>
<ellipse fill="moccasin" stroke="black" cx="473.12" cy="-332.8" rx="28.8" ry="28.8"/>
<text text-anchor="start" x="458.12" y="-328.38" font-family="Arial" font-size="14.00">A</text>
<text text-anchor="start" x="467.12" y="-328.38" font-family="Arial" baseline-shift="super" font-size="14.00">(2)</text>
<text text-anchor="start" x="481.38" y="-328.38" font-family="Arial" baseline-shift="sub" font-size="14.00">2</text>
</g>
<!-- a11&#45;&gt;a22 -->
<g id="edge69" class="edge">
<title>a11&#45;&gt;a22</title>
<path fill="none" stroke="black" d="M271.86,-434.38C311.86,-414.09 391.37,-373.76 437.26,-350.49"/>
<polygon fill="black" stroke="black" points="438.65,-353.71 445.98,-346.06 435.48,-347.46 438.65,-353.71"/>
</g>
<!-- a23 -->
<g id="node20" class="node">
<title>a23</title>
<ellipse fill="moccasin" stroke="black" cx="473.12" cy="-256.8" rx="28.8" ry="28.8"/>
<text text-anchor="start" x="458.12" y="-252.38" font-family="Arial" font-size="14.00">A</text>
<text text-anchor="start" x="467.12" y="-252.38" font-family="Arial" baseline-shift="super" font-size="14.00">(2)</text>
<text text-anchor="start" x="481.38" y="-252.38" font-family="Arial" baseline-shift="sub" font-size="14.00">3</text>
</g>
<!-- a11&#45;&gt;a23 -->
<g id="edge70" class="edge">
<title>a11&#45;&gt;a23</title>
<path fill="none" stroke="black" d="M268.52,-428.93C308.68,-394.98 396.08,-321.08 442.22,-282.08"/>
<polygon fill="black" stroke="black" points="444.34,-284.87 449.72,-275.74 439.82,-279.53 444.34,-284.87"/>
</g>
<!-- a2dot -->
<g id="node21" class="node">
<title>a2dot</title>
<ellipse fill="moccasin" stroke="black" cx="473.12" cy="-180.8" rx="28.8" ry="28.8"/>
<text text-anchor="middle" x="473.12" y="-175.38" font-family="Arial" font-size="14.00">⋮</text>
</g>
<!-- a11&#45;&gt;a2dot -->
<g id="edge71" class="edge">
<title>a11&#45;&gt;a2dot</title>
<path fill="none" stroke="black" d="M265.39,-425.48C305.25,-378.3 401.02,-264.95 446.86,-210.71"/>
<polygon fill="black" stroke="black" points="449.27,-213.27 453.05,-203.38 443.92,-208.76 449.27,-213.27"/>
</g>
<!-- ak2 -->
<g id="node22" class="node">
<title>ak2</title>
<ellipse fill="moccasin" stroke="black" cx="473.12" cy="-104.8" rx="28.8" ry="28.8"/>
<text text-anchor="start" x="449.88" y="-100.38" font-family="Arial" font-size="14.00">A</text>
<text text-anchor="start" x="458.88" y="-100.38" font-family="Arial" baseline-shift="super" font-size="14.00">(2)</text>
<text text-anchor="start" x="473.12" y="-100.38" font-family="Arial" baseline-shift="sub" font-size="14.00">K₂</text>
</g>
<!-- a11&#45;&gt;ak2 -->
<g id="edge72" class="edge">
<title>a11&#45;&gt;ak2</title>
<path fill="none" stroke="black" d="M262.82,-423.29C302.05,-363.6 405.59,-206.05 450.66,-137.47"/>
<polygon fill="black" stroke="black" points="453.47,-139.56 456.03,-129.28 447.62,-135.72 453.47,-139.56"/>
</g>
<!-- a12&#45;&gt;a13 -->
<!-- a12&#45;&gt;a21 -->
<g id="edge73" class="edge">
<title>a12&#45;&gt;a21</title>
<path fill="none" stroke="black" d="M274.49,-375.38C314.22,-382.1 388.47,-394.66 433.79,-402.32"/>
<polygon fill="black" stroke="black" points="432.98,-405.73 443.43,-403.95 434.15,-398.83 432.98,-405.73"/>
</g>
<!-- a12&#45;&gt;a22 -->
<g id="edge74" class="edge">
<title>a12&#45;&gt;a22</title>
<path fill="none" stroke="black" d="M274.49,-366.22C314.22,-359.5 388.47,-346.94 433.79,-339.28"/>
<polygon fill="black" stroke="black" points="434.15,-342.77 443.43,-337.65 432.98,-335.87 434.15,-342.77"/>
</g>
<!-- a12&#45;&gt;a23 -->
<g id="edge75" class="edge">
<title>a12&#45;&gt;a23</title>
<path fill="none" stroke="black" d="M271.86,-358.38C311.86,-338.09 391.37,-297.76 437.26,-274.49"/>
<polygon fill="black" stroke="black" points="438.65,-277.71 445.98,-270.06 435.48,-271.46 438.65,-277.71"/>
</g>
<!-- a12&#45;&gt;a2dot -->
<g id="edge76" class="edge">
<title>a12&#45;&gt;a2dot</title>
<path fill="none" stroke="black" d="M268.52,-352.93C308.68,-318.98 396.08,-245.08 442.22,-206.08"/>
<polygon fill="black" stroke="black" points="444.34,-208.87 449.72,-199.74 439.82,-203.53 444.34,-208.87"/>
</g>
<!-- a12&#45;&gt;ak2 -->
<g id="edge77" class="edge">
<title>a12&#45;&gt;ak2</title>
<path fill="none" stroke="black" d="M265.39,-349.48C305.25,-302.3 401.02,-188.95 446.86,-134.71"/>
<polygon fill="black" stroke="black" points="449.27,-137.27 453.05,-127.38 443.92,-132.76 449.27,-137.27"/>
</g>
<!-- a13&#45;&gt;a14 -->
<!-- a13&#45;&gt;a21 -->
<g id="edge78" class="edge">
<title>a13&#45;&gt;a21</title>
<path fill="none" stroke="black" d="M271.86,-307.22C311.86,-327.51 391.37,-367.84 437.26,-391.11"/>
<polygon fill="black" stroke="black" points="435.48,-394.14 445.98,-395.54 438.65,-387.89 435.48,-394.14"/>
</g>
<!-- a13&#45;&gt;a22 -->
<g id="edge79" class="edge">
<title>a13&#45;&gt;a22</title>
<path fill="none" stroke="black" d="M274.49,-299.38C314.22,-306.1 388.47,-318.66 433.79,-326.32"/>
<polygon fill="black" stroke="black" points="432.98,-329.73 443.43,-327.95 434.15,-322.83 432.98,-329.73"/>
</g>
<!-- a13&#45;&gt;a23 -->
<g id="edge80" class="edge">
<title>a13&#45;&gt;a23</title>
<path fill="none" stroke="black" d="M274.49,-290.22C314.22,-283.5 388.47,-270.94 433.79,-263.28"/>
<polygon fill="black" stroke="black" points="434.15,-266.77 443.43,-261.65 432.98,-259.87 434.15,-266.77"/>
</g>
<!-- a13&#45;&gt;a2dot -->
<g id="edge81" class="edge">
<title>a13&#45;&gt;a2dot</title>
<path fill="none" stroke="black" d="M271.86,-282.38C311.86,-262.09 391.37,-221.76 437.26,-198.49"/>
<polygon fill="black" stroke="black" points="438.65,-201.71 445.98,-194.06 435.48,-195.46 438.65,-201.71"/>
</g>
<!-- a13&#45;&gt;ak2 -->
<g id="edge82" class="edge">
<title>a13&#45;&gt;ak2</title>
<path fill="none" stroke="black" d="M268.52,-276.93C308.68,-242.98 396.08,-169.08 442.22,-130.08"/>
<polygon fill="black" stroke="black" points="444.34,-132.87 449.72,-123.74 439.82,-127.53 444.34,-132.87"/>
</g>
<!-- a14&#45;&gt;a1dot -->
<!-- a14&#45;&gt;a21 -->
<g id="edge83" class="edge">
<title>a14&#45;&gt;a21</title>
<path fill="none" stroke="black" d="M268.52,-236.67C308.68,-270.62 396.08,-344.52 442.22,-383.52"/>
<polygon fill="black" stroke="black" points="439.82,-386.07 449.72,-389.86 444.34,-380.73 439.82,-386.07"/>
</g>
<!-- a14&#45;&gt;a22 -->
<g id="edge84" class="edge">
<title>a14&#45;&gt;a22</title>
<path fill="none" stroke="black" d="M271.86,-231.22C311.86,-251.51 391.37,-291.84 437.26,-315.11"/>
<polygon fill="black" stroke="black" points="435.48,-318.14 445.98,-319.54 438.65,-311.89 435.48,-318.14"/>
</g>
<!-- a14&#45;&gt;a23 -->
<g id="edge85" class="edge">
<title>a14&#45;&gt;a23</title>
<path fill="none" stroke="black" d="M274.49,-223.38C314.22,-230.1 388.47,-242.66 433.79,-250.32"/>
<polygon fill="black" stroke="black" points="432.98,-253.73 443.43,-251.95 434.15,-246.83 432.98,-253.73"/>
</g>
<!-- a14&#45;&gt;a2dot -->
<g id="edge86" class="edge">
<title>a14&#45;&gt;a2dot</title>
<path fill="none" stroke="black" d="M274.49,-214.22C314.22,-207.5 388.47,-194.94 433.79,-187.28"/>
<polygon fill="black" stroke="black" points="434.15,-190.77 443.43,-185.65 432.98,-183.87 434.15,-190.77"/>
</g>
<!-- a14&#45;&gt;ak2 -->
<g id="edge87" class="edge">
<title>a14&#45;&gt;ak2</title>
<path fill="none" stroke="black" d="M271.86,-206.38C311.86,-186.09 391.37,-145.76 437.26,-122.49"/>
<polygon fill="black" stroke="black" points="438.65,-125.71 445.98,-118.06 435.48,-119.46 438.65,-125.71"/>
</g>
<!-- a1dot&#45;&gt;ak1 -->
<!-- a1dot&#45;&gt;a21 -->
<g id="edge88" class="edge">
<title>a1dot&#45;&gt;a21</title>
<path fill="none" stroke="black" d="M265.39,-164.12C305.25,-211.3 401.02,-324.65 446.86,-378.89"/>
<polygon fill="black" stroke="black" points="443.92,-380.84 453.05,-386.22 449.27,-376.33 443.92,-380.84"/>
</g>
<!-- a1dot&#45;&gt;a22 -->
<g id="edge89" class="edge">
<title>a1dot&#45;&gt;a22</title>
<path fill="none" stroke="black" d="M268.52,-160.67C308.68,-194.62 396.08,-268.52 442.22,-307.52"/>
<polygon fill="black" stroke="black" points="439.82,-310.07 449.72,-313.86 444.34,-304.73 439.82,-310.07"/>
</g>
<!-- a1dot&#45;&gt;a23 -->
<g id="edge90" class="edge">
<title>a1dot&#45;&gt;a23</title>
<path fill="none" stroke="black" d="M271.86,-155.22C311.86,-175.51 391.37,-215.84 437.26,-239.11"/>
<polygon fill="black" stroke="black" points="435.48,-242.14 445.98,-243.54 438.65,-235.89 435.48,-242.14"/>
</g>
<!-- a1dot&#45;&gt;a2dot -->
<g id="edge91" class="edge">
<title>a1dot&#45;&gt;a2dot</title>
<path fill="none" stroke="black" d="M274.49,-147.38C314.22,-154.1 388.47,-166.66 433.79,-174.32"/>
<polygon fill="black" stroke="black" points="432.98,-177.73 443.43,-175.95 434.15,-170.83 432.98,-177.73"/>
</g>
<!-- a1dot&#45;&gt;ak2 -->
<g id="edge92" class="edge">
<title>a1dot&#45;&gt;ak2</title>
<path fill="none" stroke="black" d="M274.49,-138.22C314.22,-131.5 388.47,-118.94 433.79,-111.28"/>
<polygon fill="black" stroke="black" points="434.15,-114.77 443.43,-109.65 432.98,-107.87 434.15,-114.77"/>
</g>
<!-- ak1&#45;&gt;a21 -->
<g id="edge93" class="edge">
<title>ak1&#45;&gt;a21</title>
<path fill="none" stroke="black" d="M262.82,-90.31C302.05,-150 405.59,-307.55 450.66,-376.13"/>
<polygon fill="black" stroke="black" points="447.62,-377.88 456.03,-384.32 453.47,-374.04 447.62,-377.88"/>
</g>
<!-- ak1&#45;&gt;a22 -->
<g id="edge94" class="edge">
<title>ak1&#45;&gt;a22</title>
<path fill="none" stroke="black" d="M265.39,-88.12C305.25,-135.3 401.02,-248.65 446.86,-302.89"/>
<polygon fill="black" stroke="black" points="443.92,-304.84 453.05,-310.22 449.27,-300.33 443.92,-304.84"/>
</g>
<!-- ak1&#45;&gt;a23 -->
<g id="edge95" class="edge">
<title>ak1&#45;&gt;a23</title>
<path fill="none" stroke="black" d="M268.52,-84.67C308.68,-118.62 396.08,-192.52 442.22,-231.52"/>
<polygon fill="black" stroke="black" points="439.82,-234.07 449.72,-237.86 444.34,-228.73 439.82,-234.07"/>
</g>
<!-- ak1&#45;&gt;a2dot -->
<g id="edge96" class="edge">
<title>ak1&#45;&gt;a2dot</title>
<path fill="none" stroke="black" d="M271.86,-79.22C311.86,-99.51 391.37,-139.84 437.26,-163.11"/>
<polygon fill="black" stroke="black" points="435.48,-166.14 445.98,-167.54 438.65,-159.89 435.48,-166.14"/>
</g>
<!-- ak1&#45;&gt;ak2 -->
<g id="edge97" class="edge">
<title>ak1&#45;&gt;ak2</title>
<path fill="none" stroke="black" d="M274.49,-71.38C314.22,-78.1 388.47,-90.66 433.79,-98.32"/>
<polygon fill="black" stroke="black" points="432.98,-101.73 443.43,-99.95 434.15,-94.83 432.98,-101.73"/>
</g>
<!-- a21&#45;&gt;a22 -->
<!-- a21&#45;&gt;f0 -->
<g id="edge98" class="edge">
<title>a21&#45;&gt;f0</title>
<path fill="none" stroke="black" d="M501.21,-403.91C538.06,-397.26 604.18,-385.32 646.15,-377.75"/>
<polygon fill="black" stroke="black" points="646.6,-381.22 655.82,-376 645.36,-374.33 646.6,-381.22"/>
</g>
<!-- f1 -->
<g id="node24" class="node">
<title>f1</title>
<ellipse fill="pink" stroke="black" cx="685.62" cy="-294.8" rx="28.8" ry="28.8"/>
<text text-anchor="middle" x="685.62" y="-289.38" font-family="Arial" font-size="14.00">f₁(X)</text>
</g>
<!-- a21&#45;&gt;f1 -->
<g id="edge99" class="edge">
<title>a21&#45;&gt;f1</title>
<path fill="none" stroke="black" d="M498.27,-395.72C535.58,-375.52 607.4,-336.62 650.16,-313.46"/>
<polygon fill="black" stroke="black" points="651.65,-316.64 658.78,-308.8 648.32,-310.48 651.65,-316.64"/>
</g>
<!-- fdot -->
<g id="node25" class="node">
<title>fdot</title>
<ellipse fill="pink" stroke="black" cx="685.62" cy="-218.8" rx="28.8" ry="28.8"/>
<text text-anchor="middle" x="685.62" y="-213.38" font-family="Arial" font-size="14.00">⋮</text>
</g>
<!-- a21&#45;&gt;fdot -->
<g id="edge100" class="edge">
<title>a21&#45;&gt;fdot</title>
<path fill="none" stroke="black" d="M494.69,-390.24C532.34,-356.25 612.43,-283.97 655.6,-245"/>
<polygon fill="black" stroke="black" points="657.77,-247.75 662.85,-238.45 653.08,-242.56 657.77,-247.75"/>
</g>
<!-- fm -->
<g id="node26" class="node">
<title>fm</title>
<ellipse fill="pink" stroke="black" cx="685.62" cy="-142.8" rx="28.8" ry="28.8"/>
<text text-anchor="middle" x="685.62" y="-137.38" font-family="Arial" font-size="14.00">fₘ(X)</text>
</g>
<!-- a21&#45;&gt;fm -->
<g id="edge101" class="edge">
<title>a21&#45;&gt;fm</title>
<path fill="none" stroke="black" d="M491.35,-387.03C528.67,-339.88 617.06,-228.18 660.16,-173.72"/>
<polygon fill="black" stroke="black" points="662.76,-176.07 666.22,-166.06 657.27,-171.73 662.76,-176.07"/>
</g>
<!-- a22&#45;&gt;a23 -->
<!-- a22&#45;&gt;f0 -->
<g id="edge102" class="edge">
<title>a22&#45;&gt;f0</title>
<path fill="none" stroke="black" d="M501.21,-337.69C538.06,-344.34 604.18,-356.28 646.15,-363.85"/>
<polygon fill="black" stroke="black" points="645.36,-367.27 655.82,-365.6 646.6,-360.38 645.36,-367.27"/>
</g>
<!-- a22&#45;&gt;f1 -->
<g id="edge103" class="edge">
<title>a22&#45;&gt;f1</title>
<path fill="none" stroke="black" d="M501.21,-327.91C538.06,-321.26 604.18,-309.32 646.15,-301.75"/>
<polygon fill="black" stroke="black" points="646.6,-305.22 655.82,-300 645.36,-298.33 646.6,-305.22"/>
</g>
<!-- a22&#45;&gt;fdot -->
<g id="edge104" class="edge">
<title>a22&#45;&gt;fdot</title>
<path fill="none" stroke="black" d="M498.27,-319.72C535.58,-299.52 607.4,-260.62 650.16,-237.46"/>
<polygon fill="black" stroke="black" points="651.65,-240.64 658.78,-232.8 648.32,-234.48 651.65,-240.64"/>
</g>
<!-- a22&#45;&gt;fm -->
<g id="edge105" class="edge">
<title>a22&#45;&gt;fm</title>
<path fill="none" stroke="black" d="M494.69,-314.24C532.34,-280.25 612.43,-207.97 655.6,-169"/>
<polygon fill="black" stroke="black" points="657.77,-171.75 662.85,-162.45 653.08,-166.56 657.77,-171.75"/>
</g>
<!-- a23&#45;&gt;a2dot -->
<!-- a23&#45;&gt;f0 -->
<g id="edge106" class="edge">
<title>a23&#45;&gt;f0</title>
<path fill="none" stroke="black" d="M498.27,-269.88C535.58,-290.08 607.4,-328.98 650.16,-352.14"/>
<polygon fill="black" stroke="black" points="648.32,-355.12 658.78,-356.8 651.65,-348.96 648.32,-355.12"/>
</g>
<!-- a23&#45;&gt;f1 -->
<g id="edge107" class="edge">
<title>a23&#45;&gt;f1</title>
<path fill="none" stroke="black" d="M501.21,-261.69C538.06,-268.34 604.18,-280.28 646.15,-287.85"/>
<polygon fill="black" stroke="black" points="645.36,-291.27 655.82,-289.6 646.6,-284.38 645.36,-291.27"/>
</g>
<!-- a23&#45;&gt;fdot -->
<g id="edge108" class="edge">
<title>a23&#45;&gt;fdot</title>
<path fill="none" stroke="black" d="M501.21,-251.91C538.06,-245.26 604.18,-233.32 646.15,-225.75"/>
<polygon fill="black" stroke="black" points="646.6,-229.22 655.82,-224 645.36,-222.33 646.6,-229.22"/>
</g>
<!-- a23&#45;&gt;fm -->
<g id="edge109" class="edge">
<title>a23&#45;&gt;fm</title>
<path fill="none" stroke="black" d="M498.27,-243.72C535.58,-223.52 607.4,-184.62 650.16,-161.46"/>
<polygon fill="black" stroke="black" points="651.65,-164.64 658.78,-156.8 648.32,-158.48 651.65,-164.64"/>
</g>
<!-- a2dot&#45;&gt;ak2 -->
<!-- a2dot&#45;&gt;f0 -->
<g id="edge110" class="edge">
<title>a2dot&#45;&gt;f0</title>
<path fill="none" stroke="black" d="M494.69,-199.36C532.34,-233.35 612.43,-305.63 655.6,-344.6"/>
<polygon fill="black" stroke="black" points="653.08,-347.04 662.85,-351.15 657.77,-341.85 653.08,-347.04"/>
</g>
<!-- a2dot&#45;&gt;f1 -->
<g id="edge111" class="edge">
<title>a2dot&#45;&gt;f1</title>
<path fill="none" stroke="black" d="M498.27,-193.88C535.58,-214.08 607.4,-252.98 650.16,-276.14"/>
<polygon fill="black" stroke="black" points="648.32,-279.12 658.78,-280.8 651.65,-272.96 648.32,-279.12"/>
</g>
<!-- a2dot&#45;&gt;fdot -->
<g id="edge112" class="edge">
<title>a2dot&#45;&gt;fdot</title>
<path fill="none" stroke="black" d="M501.21,-185.69C538.06,-192.34 604.18,-204.28 646.15,-211.85"/>
<polygon fill="black" stroke="black" points="645.36,-215.27 655.82,-213.6 646.6,-208.38 645.36,-215.27"/>
</g>
<!-- a2dot&#45;&gt;fm -->
<g id="edge113" class="edge">
<title>a2dot&#45;&gt;fm</title>
<path fill="none" stroke="black" d="M501.21,-175.91C538.06,-169.26 604.18,-157.32 646.15,-149.75"/>
<polygon fill="black" stroke="black" points="646.6,-153.22 655.82,-148 645.36,-146.33 646.6,-153.22"/>
</g>
<!-- ak2&#45;&gt;f0 -->
<g id="edge114" class="edge">
<title>ak2&#45;&gt;f0</title>
<path fill="none" stroke="black" d="M491.35,-126.57C528.67,-173.72 617.06,-285.42 660.16,-339.88"/>
<polygon fill="black" stroke="black" points="657.27,-341.87 666.22,-347.54 662.76,-337.53 657.27,-341.87"/>
</g>
<!-- ak2&#45;&gt;f1 -->
<g id="edge115" class="edge">
<title>ak2&#45;&gt;f1</title>
<path fill="none" stroke="black" d="M494.69,-123.36C532.34,-157.35 612.43,-229.63 655.6,-268.6"/>
<polygon fill="black" stroke="black" points="653.08,-271.04 662.85,-275.15 657.77,-265.85 653.08,-271.04"/>
</g>
<!-- ak2&#45;&gt;fdot -->
<g id="edge116" class="edge">
<title>ak2&#45;&gt;fdot</title>
<path fill="none" stroke="black" d="M498.27,-117.88C535.58,-138.08 607.4,-176.98 650.16,-200.14"/>
<polygon fill="black" stroke="black" points="648.32,-203.12 658.78,-204.8 651.65,-196.96 648.32,-203.12"/>
</g>
<!-- ak2&#45;&gt;fm -->
<g id="edge117" class="edge">
<title>ak2&#45;&gt;fm</title>
<path fill="none" stroke="black" d="M501.21,-109.69C538.06,-116.34 604.18,-128.28 646.15,-135.85"/>
<polygon fill="black" stroke="black" points="645.36,-139.27 655.82,-137.6 646.6,-132.38 645.36,-139.27"/>
</g>
<!-- f0&#45;&gt;f1 -->
<!-- y0 -->
<g id="node27" class="node">
<title>y0</title>
<polygon fill="none" stroke="none" points="896.35,-377.8 838.75,-377.8 838.75,-341.8 896.35,-341.8 896.35,-377.8"/>
<text text-anchor="middle" x="867.55" y="-354.38" font-family="Arial" font-size="14.00">Y₀</text>
</g>
<!-- f0&#45;&gt;y0 -->
<g id="edge118" class="edge">
<title>f0&#45;&gt;y0</title>
<path fill="none" stroke="black" d="M714.34,-369.11C748.06,-367.04 804.64,-363.58 838.5,-361.51"/>
<polygon fill="black" stroke="black" points="838.59,-365.02 848.35,-360.91 838.16,-358.03 838.59,-365.02"/>
</g>
<!-- f1&#45;&gt;fdot -->
<!-- y1 -->
<g id="node28" class="node">
<title>y1</title>
<polygon fill="none" stroke="none" points="896.35,-312.8 838.75,-312.8 838.75,-276.8 896.35,-276.8 896.35,-312.8"/>
<text text-anchor="middle" x="867.55" y="-289.38" font-family="Arial" font-size="14.00">Y₁</text>
</g>
<!-- f1&#45;&gt;y1 -->
<g id="edge119" class="edge">
<title>f1&#45;&gt;y1</title>
<path fill="none" stroke="black" d="M714.34,-294.8C748.06,-294.8 804.64,-294.8 838.5,-294.8"/>
<polygon fill="black" stroke="black" points="838.35,-298.3 848.35,-294.8 838.35,-291.3 838.35,-298.3"/>
</g>
<!-- fdot&#45;&gt;fm -->
<!-- ydot -->
<g id="node29" class="node">
<title>ydot</title>
<polygon fill="none" stroke="none" points="896.35,-236.8 838.75,-236.8 838.75,-200.8 896.35,-200.8 896.35,-236.8"/>
<text text-anchor="middle" x="867.55" y="-213.38" font-family="Arial" font-size="14.00">⋮</text>
</g>
<!-- fdot&#45;&gt;ydot -->
<g id="edge120" class="edge">
<title>fdot&#45;&gt;ydot</title>
<path fill="none" stroke="black" d="M714.34,-218.8C748.06,-218.8 804.64,-218.8 838.5,-218.8"/>
<polygon fill="black" stroke="black" points="838.35,-222.3 848.35,-218.8 838.35,-215.3 838.35,-222.3"/>
</g>
<!-- ym -->
<g id="node30" class="node">
<title>ym</title>
<polygon fill="none" stroke="none" points="896.35,-171.8 838.75,-171.8 838.75,-135.8 896.35,-135.8 896.35,-171.8"/>
<text text-anchor="middle" x="867.55" y="-148.38" font-family="Arial" font-size="14.00">Ym</text>
</g>
<!-- fm&#45;&gt;ym -->
<g id="edge121" class="edge">
<title>fm&#45;&gt;ym</title>
<path fill="none" stroke="black" d="M714.34,-144.49C748.06,-146.56 804.64,-150.02 838.5,-152.09"/>
<polygon fill="black" stroke="black" points="838.16,-155.57 848.35,-152.69 838.59,-148.58 838.16,-155.57"/>
</g>
<!-- y0&#45;&gt;y1 -->
<!-- y1&#45;&gt;ydot -->
<!-- ydot&#45;&gt;ym -->
</g>
</svg>
