<?xml version="1.0" encoding="UTF-8" standalone="no"?>
<!DOCTYPE svg PUBLIC "-//W3C//DTD SVG 1.1//EN"
 "http://www.w3.org/Graphics/SVG/1.1/DTD/svg11.dtd">
<!-- Generated by graphviz version 12.2.1 (20241206.2353)
 -->
<!-- Title: g Pages: 1 -->
<svg width="647pt" height="344pt"
 viewBox="0.00 0.00 647.00 344.12" xmlns="http://www.w3.org/2000/svg" xmlns:xlink="http://www.w3.org/1999/xlink">
<g id="graph0" class="graph" transform="scale(1 1) rotate(0) translate(4 340.12)">
<title>g</title>
<polygon fill="#f9f9f9" stroke="none" points="-4,4 -4,-340.12 643,-340.12 643,4 -4,4"/>
<!-- label_x -->
<g id="node1" class="node">
<title>label_x</title>
<polygon fill="none" stroke="none" points="79,-306.12 0,-306.12 0,-270.12 79,-270.12 79,-306.12"/>
<text text-anchor="middle" x="39.5" y="-282.7" font-family="Arial" font-size="14.00">Input layer</text>
</g>
<!-- x1 -->
<g id="node5" class="node">
<title>x1</title>
<ellipse fill="palegreen" stroke="black" cx="39.5" cy="-231.12" rx="21.12" ry="21.12"/>
<text text-anchor="start" x="31.62" y="-226.7" font-family="Arial" font-size="14.00">X</text>
<text text-anchor="start" x="40.62" y="-226.7" font-family="Arial" baseline-shift="sub" font-size="14.00">1</text>
</g>
<!-- label_x&#45;&gt;x1 -->
<!-- label_a -->
<g id="node2" class="node">
<title>label_a</title>
<polygon fill="none" stroke="none" points="278.75,-336.12 187,-336.12 187,-300.12 278.75,-300.12 278.75,-336.12"/>
<text text-anchor="middle" x="232.88" y="-312.7" font-family="Arial" font-size="14.00">Hidden layer</text>
</g>
<!-- a1 -->
<g id="node9" class="node">
<title>a1</title>
<ellipse fill="deepskyblue" stroke="black" cx="232.88" cy="-261.12" rx="21.12" ry="21.12"/>
<text text-anchor="start" x="225" y="-256.7" font-family="Arial" font-size="14.00">A</text>
<text text-anchor="start" x="234" y="-256.7" font-family="Arial" baseline-shift="sub" font-size="14.00">1</text>
</g>
<!-- label_a&#45;&gt;a1 -->
<!-- label_fx -->
<g id="node3" class="node">
<title>label_fx</title>
<polygon fill="none" stroke="none" points="477,-220.12 386.75,-220.12 386.75,-184.12 477,-184.12 477,-220.12"/>
<text text-anchor="middle" x="431.88" y="-196.7" font-family="Arial" font-size="14.00">Output layer</text>
</g>
<!-- fx -->
<g id="node14" class="node">
<title>fx</title>
<ellipse fill="pink" stroke="black" cx="431.88" cy="-141.12" rx="25.12" ry="25.12"/>
<text text-anchor="start" x="421" y="-135.7" font-family="Arial" font-size="14.00">f(X)</text>
</g>
<!-- label_fx&#45;&gt;fx -->
<!-- y -->
<g id="node4" class="node">
<title>y</title>
<polygon fill="none" stroke="none" points="639,-159.12 585,-159.12 585,-123.12 639,-123.12 639,-159.12"/>
<text text-anchor="start" x="607.5" y="-135.7" font-family="Arial" font-size="14.00">Y</text>
</g>
<!-- x2 -->
<g id="node6" class="node">
<title>x2</title>
<ellipse fill="palegreen" stroke="black" cx="39.5" cy="-171.12" rx="21.12" ry="21.12"/>
<text text-anchor="start" x="31.62" y="-166.7" font-family="Arial" font-size="14.00">X</text>
<text text-anchor="start" x="40.62" y="-166.7" font-family="Arial" baseline-shift="sub" font-size="14.00">2</text>
</g>
<!-- x1&#45;&gt;x2 -->
<!-- x1&#45;&gt;a1 -->
<g id="edge11" class="edge">
<title>x1&#45;&gt;a1</title>
<path fill="none" stroke="black" d="M60.62,-234.28C93.93,-239.5 160.78,-249.98 200.39,-256.19"/>
<polygon fill="black" stroke="black" points="199.82,-259.64 210.24,-257.73 200.91,-252.73 199.82,-259.64"/>
</g>
<!-- a2 -->
<g id="node10" class="node">
<title>a2</title>
<ellipse fill="deepskyblue" stroke="black" cx="232.88" cy="-201.12" rx="21.12" ry="21.12"/>
<text text-anchor="start" x="225" y="-196.7" font-family="Arial" font-size="14.00">A</text>
<text text-anchor="start" x="234" y="-196.7" font-family="Arial" baseline-shift="sub" font-size="14.00">2</text>
</g>
<!-- x1&#45;&gt;a2 -->
<g id="edge12" class="edge">
<title>x1&#45;&gt;a2</title>
<path fill="none" stroke="black" d="M60.62,-227.97C93.93,-222.75 160.78,-212.27 200.39,-206.06"/>
<polygon fill="black" stroke="black" points="200.91,-209.52 210.24,-204.52 199.82,-202.61 200.91,-209.52"/>
</g>
<!-- a3 -->
<g id="node11" class="node">
<title>a3</title>
<ellipse fill="deepskyblue" stroke="black" cx="232.88" cy="-141.12" rx="21.12" ry="21.12"/>
<text text-anchor="start" x="225" y="-136.7" font-family="Arial" font-size="14.00">A</text>
<text text-anchor="start" x="234" y="-136.7" font-family="Arial" baseline-shift="sub" font-size="14.00">3</text>
</g>
<!-- x1&#45;&gt;a3 -->
<g id="edge13" class="edge">
<title>x1&#45;&gt;a3</title>
<path fill="none" stroke="black" d="M59.2,-222.33C92.73,-206.56 163.28,-173.39 203.04,-154.68"/>
<polygon fill="black" stroke="black" points="204.45,-157.89 212.01,-150.46 201.47,-151.55 204.45,-157.89"/>
</g>
<!-- a4 -->
<g id="node12" class="node">
<title>a4</title>
<ellipse fill="deepskyblue" stroke="black" cx="232.88" cy="-81.12" rx="21.12" ry="21.12"/>
<text text-anchor="start" x="225" y="-76.7" font-family="Arial" font-size="14.00">A</text>
<text text-anchor="start" x="234" y="-76.7" font-family="Arial" baseline-shift="sub" font-size="14.00">4</text>
</g>
<!-- x1&#45;&gt;a4 -->
<g id="edge14" class="edge">
<title>x1&#45;&gt;a4</title>
<path fill="none" stroke="black" d="M56.82,-218.34C90.29,-192.1 166.92,-132.04 206.77,-100.8"/>
<polygon fill="black" stroke="black" points="208.7,-103.74 214.41,-94.81 204.38,-98.23 208.7,-103.74"/>
</g>
<!-- a5 -->
<g id="node13" class="node">
<title>a5</title>
<ellipse fill="deepskyblue" stroke="black" cx="232.88" cy="-21.12" rx="21.12" ry="21.12"/>
<text text-anchor="start" x="225" y="-16.7" font-family="Arial" font-size="14.00">A</text>
<text text-anchor="start" x="234" y="-16.7" font-family="Arial" baseline-shift="sub" font-size="14.00">5</text>
</g>
<!-- x1&#45;&gt;a5 -->
<g id="edge15" class="edge">
<title>x1&#45;&gt;a5</title>
<path fill="none" stroke="black" d="M54.57,-215.68C87.68,-179.35 170.69,-88.26 210.25,-44.85"/>
<polygon fill="black" stroke="black" points="212.61,-47.46 216.76,-37.71 207.44,-42.74 212.61,-47.46"/>
</g>
<!-- x3 -->
<g id="node7" class="node">
<title>x3</title>
<ellipse fill="palegreen" stroke="black" cx="39.5" cy="-111.12" rx="21.12" ry="21.12"/>
<text text-anchor="start" x="31.62" y="-106.7" font-family="Arial" font-size="14.00">X</text>
<text text-anchor="start" x="40.62" y="-106.7" font-family="Arial" baseline-shift="sub" font-size="14.00">3</text>
</g>
<!-- x2&#45;&gt;x3 -->
<!-- x2&#45;&gt;a1 -->
<g id="edge16" class="edge">
<title>x2&#45;&gt;a1</title>
<path fill="none" stroke="black" d="M59.2,-179.92C92.73,-195.69 163.28,-228.86 203.04,-247.56"/>
<polygon fill="black" stroke="black" points="201.47,-250.69 212.01,-251.78 204.45,-244.36 201.47,-250.69"/>
</g>
<!-- x2&#45;&gt;a2 -->
<g id="edge17" class="edge">
<title>x2&#45;&gt;a2</title>
<path fill="none" stroke="black" d="M60.62,-174.28C93.93,-179.5 160.78,-189.98 200.39,-196.19"/>
<polygon fill="black" stroke="black" points="199.82,-199.64 210.24,-197.73 200.91,-192.73 199.82,-199.64"/>
</g>
<!-- x2&#45;&gt;a3 -->
<g id="edge18" class="edge">
<title>x2&#45;&gt;a3</title>
<path fill="none" stroke="black" d="M60.62,-167.97C93.93,-162.75 160.78,-152.27 200.39,-146.06"/>
<polygon fill="black" stroke="black" points="200.91,-149.52 210.24,-144.52 199.82,-142.61 200.91,-149.52"/>
</g>
<!-- x2&#45;&gt;a4 -->
<g id="edge19" class="edge">
<title>x2&#45;&gt;a4</title>
<path fill="none" stroke="black" d="M59.2,-162.33C92.73,-146.56 163.28,-113.39 203.04,-94.68"/>
<polygon fill="black" stroke="black" points="204.45,-97.89 212.01,-90.46 201.47,-91.55 204.45,-97.89"/>
</g>
<!-- x2&#45;&gt;a5 -->
<g id="edge20" class="edge">
<title>x2&#45;&gt;a5</title>
<path fill="none" stroke="black" d="M56.82,-158.34C90.29,-132.1 166.92,-72.04 206.77,-40.8"/>
<polygon fill="black" stroke="black" points="208.7,-43.74 214.41,-34.81 204.38,-38.23 208.7,-43.74"/>
</g>
<!-- x4 -->
<g id="node8" class="node">
<title>x4</title>
<ellipse fill="palegreen" stroke="black" cx="39.5" cy="-51.12" rx="21.12" ry="21.12"/>
<text text-anchor="start" x="31.62" y="-46.7" font-family="Arial" font-size="14.00">X</text>
<text text-anchor="start" x="40.62" y="-46.7" font-family="Arial" baseline-shift="sub" font-size="14.00">4</text>
</g>
<!-- x3&#45;&gt;x4 -->
<!-- x3&#45;&gt;a1 -->
<g id="edge21" class="edge">
<title>x3&#45;&gt;a1</title>
<path fill="none" stroke="black" d="M56.82,-123.91C90.29,-150.15 166.92,-210.21 206.77,-241.44"/>
<polygon fill="black" stroke="black" points="204.38,-244.02 214.41,-247.43 208.7,-238.51 204.38,-244.02"/>
</g>
<!-- x3&#45;&gt;a2 -->
<g id="edge22" class="edge">
<title>x3&#45;&gt;a2</title>
<path fill="none" stroke="black" d="M59.2,-119.92C92.73,-135.69 163.28,-168.86 203.04,-187.56"/>
<polygon fill="black" stroke="black" points="201.47,-190.69 212.01,-191.78 204.45,-184.36 201.47,-190.69"/>
</g>
<!-- x3&#45;&gt;a3 -->
<g id="edge23" class="edge">
<title>x3&#45;&gt;a3</title>
<path fill="none" stroke="black" d="M60.62,-114.28C93.93,-119.5 160.78,-129.98 200.39,-136.19"/>
<polygon fill="black" stroke="black" points="199.82,-139.64 210.24,-137.73 200.91,-132.73 199.82,-139.64"/>
</g>
<!-- x3&#45;&gt;a4 -->
<g id="edge24" class="edge">
<title>x3&#45;&gt;a4</title>
<path fill="none" stroke="black" d="M60.62,-107.97C93.93,-102.75 160.78,-92.27 200.39,-86.06"/>
<polygon fill="black" stroke="black" points="200.91,-89.52 210.24,-84.52 199.82,-82.61 200.91,-89.52"/>
</g>
<!-- x3&#45;&gt;a5 -->
<g id="edge25" class="edge">
<title>x3&#45;&gt;a5</title>
<path fill="none" stroke="black" d="M59.2,-102.33C92.73,-86.56 163.28,-53.39 203.04,-34.68"/>
<polygon fill="black" stroke="black" points="204.45,-37.89 212.01,-30.46 201.47,-31.55 204.45,-37.89"/>
</g>
<!-- x4&#45;&gt;a1 -->
<g id="edge26" class="edge">
<title>x4&#45;&gt;a1</title>
<path fill="none" stroke="black" d="M54.57,-66.57C87.68,-102.9 170.69,-193.99 210.25,-237.4"/>
<polygon fill="black" stroke="black" points="207.44,-239.51 216.76,-244.54 212.61,-234.79 207.44,-239.51"/>
</g>
<!-- x4&#45;&gt;a2 -->
<g id="edge27" class="edge">
<title>x4&#45;&gt;a2</title>
<path fill="none" stroke="black" d="M56.82,-63.91C90.29,-90.15 166.92,-150.21 206.77,-181.44"/>
<polygon fill="black" stroke="black" points="204.38,-184.02 214.41,-187.43 208.7,-178.51 204.38,-184.02"/>
</g>
<!-- x4&#45;&gt;a3 -->
<g id="edge28" class="edge">
<title>x4&#45;&gt;a3</title>
<path fill="none" stroke="black" d="M59.2,-59.92C92.73,-75.69 163.28,-108.86 203.04,-127.56"/>
<polygon fill="black" stroke="black" points="201.47,-130.69 212.01,-131.78 204.45,-124.36 201.47,-130.69"/>
</g>
<!-- x4&#45;&gt;a4 -->
<g id="edge29" class="edge">
<title>x4&#45;&gt;a4</title>
<path fill="none" stroke="black" d="M60.62,-54.28C93.93,-59.5 160.78,-69.98 200.39,-76.19"/>
<polygon fill="black" stroke="black" points="199.82,-79.64 210.24,-77.73 200.91,-72.73 199.82,-79.64"/>
</g>
<!-- x4&#45;&gt;a5 -->
<g id="edge30" class="edge">
<title>x4&#45;&gt;a5</title>
<path fill="none" stroke="black" d="M60.62,-47.97C93.93,-42.75 160.78,-32.27 200.39,-26.06"/>
<polygon fill="black" stroke="black" points="200.91,-29.52 210.24,-24.52 199.82,-22.61 200.91,-29.52"/>
</g>
<!-- a1&#45;&gt;a2 -->
<!-- a1&#45;&gt;fx -->
<g id="edge31" class="edge">
<title>a1&#45;&gt;fx</title>
<path fill="none" stroke="black" d="M251.36,-250.47C284.85,-230.07 358.44,-185.25 400.26,-159.78"/>
<polygon fill="black" stroke="black" points="401.9,-162.87 408.62,-154.68 398.26,-156.89 401.9,-162.87"/>
</g>
<!-- a2&#45;&gt;a3 -->
<!-- a2&#45;&gt;fx -->
<g id="edge32" class="edge">
<title>a2&#45;&gt;fx</title>
<path fill="none" stroke="black" d="M253.48,-195.15C286.84,-184.99 355.04,-164.22 396.48,-151.6"/>
<polygon fill="black" stroke="black" points="397.41,-154.97 405.96,-148.71 395.37,-148.28 397.41,-154.97"/>
</g>
<!-- a3&#45;&gt;a4 -->
<!-- a3&#45;&gt;fx -->
<g id="edge33" class="edge">
<title>a3&#45;&gt;fx</title>
<path fill="none" stroke="black" d="M254.22,-141.12C287.41,-141.12 353.66,-141.12 394.92,-141.12"/>
<polygon fill="black" stroke="black" points="394.85,-144.62 404.85,-141.12 394.85,-137.62 394.85,-144.62"/>
</g>
<!-- a4&#45;&gt;a5 -->
<!-- a4&#45;&gt;fx -->
<g id="edge34" class="edge">
<title>a4&#45;&gt;fx</title>
<path fill="none" stroke="black" d="M253.48,-87.1C286.84,-97.26 355.04,-118.03 396.48,-130.65"/>
<polygon fill="black" stroke="black" points="395.37,-133.97 405.96,-133.54 397.41,-127.27 395.37,-133.97"/>
</g>
<!-- a5&#45;&gt;fx -->
<g id="edge35" class="edge">
<title>a5&#45;&gt;fx</title>
<path fill="none" stroke="black" d="M251.36,-31.77C284.85,-52.17 358.44,-97 400.26,-122.47"/>
<polygon fill="black" stroke="black" points="398.26,-125.35 408.62,-127.57 401.9,-119.38 398.26,-125.35"/>
</g>
<!-- fx&#45;&gt;y -->
<g id="edge36" class="edge">
<title>fx&#45;&gt;y</title>
<path fill="none" stroke="black" d="M457.27,-141.12C487.4,-141.12 538.96,-141.12 573.98,-141.12"/>
<polygon fill="black" stroke="black" points="573.66,-144.62 583.66,-141.12 573.66,-137.62 573.66,-144.62"/>
</g>
</g>
</svg>
