<?xml version="1.0" encoding="UTF-8" standalone="no"?>
<!DOCTYPE svg PUBLIC "-//W3C//DTD SVG 1.1//EN"
 "http://www.w3.org/Graphics/SVG/1.1/DTD/svg11.dtd">
<!-- Generated by graphviz version 12.2.1 (20241206.2353)
 -->
<!-- Title: g Pages: 1 -->
<svg width="647pt" height="224pt"
 viewBox="0.00 0.00 647.00 224.12" xmlns="http://www.w3.org/2000/svg" xmlns:xlink="http://www.w3.org/1999/xlink">
<g id="graph0" class="graph" transform="scale(1 1) rotate(0) translate(4 220.12)">
<title>g</title>
<polygon fill="#f9f9f9" stroke="none" points="-4,4 -4,-220.12 643,-220.12 643,4 -4,4"/>
<!-- label_x -->
<g id="node1" class="node">
<title>label_x</title>
<polygon fill="none" stroke="none" points="79,-156.12 0,-156.12 0,-120.12 79,-120.12 79,-156.12"/>
<text text-anchor="middle" x="39.5" y="-132.7" font-family="Arial" font-size="14.00">Input layer</text>
</g>
<!-- x1 -->
<g id="node5" class="node">
<title>x1</title>
<ellipse fill="palegreen" stroke="black" cx="39.5" cy="-81.12" rx="21.12" ry="21.12"/>
<text text-anchor="start" x="31.62" y="-76.7" font-family="Arial" font-size="14.00">X</text>
<text text-anchor="start" x="40.62" y="-76.7" font-family="Arial" baseline-shift="sub" font-size="14.00">1</text>
</g>
<!-- label_x&#45;&gt;x1 -->
<!-- label_a -->
<g id="node2" class="node">
<title>label_a</title>
<polygon fill="none" stroke="none" points="278.75,-216.12 187,-216.12 187,-180.12 278.75,-180.12 278.75,-216.12"/>
<text text-anchor="middle" x="232.88" y="-192.7" font-family="Arial" font-size="14.00">Hidden layer</text>
</g>
<!-- a1 -->
<g id="node6" class="node">
<title>a1</title>
<ellipse fill="deepskyblue" stroke="black" cx="232.88" cy="-141.12" rx="21.12" ry="21.12"/>
<text text-anchor="start" x="225" y="-136.7" font-family="Arial" font-size="14.00">A</text>
<text text-anchor="start" x="234" y="-136.7" font-family="Arial" baseline-shift="sub" font-size="14.00">1</text>
</g>
<!-- label_a&#45;&gt;a1 -->
<!-- label_fx -->
<g id="node3" class="node">
<title>label_fx</title>
<polygon fill="none" stroke="none" points="477,-160.12 386.75,-160.12 386.75,-124.12 477,-124.12 477,-160.12"/>
<text text-anchor="middle" x="431.88" y="-136.7" font-family="Arial" font-size="14.00">Output layer</text>
</g>
<!-- fx -->
<g id="node9" class="node">
<title>fx</title>
<ellipse fill="pink" stroke="black" cx="431.88" cy="-81.12" rx="25.12" ry="25.12"/>
<text text-anchor="start" x="421" y="-75.7" font-family="Arial" font-size="14.00">f(X)</text>
</g>
<!-- label_fx&#45;&gt;fx -->
<!-- y -->
<g id="node4" class="node">
<title>y</title>
<polygon fill="none" stroke="none" points="639,-99.12 585,-99.12 585,-63.12 639,-63.12 639,-99.12"/>
<text text-anchor="start" x="607.5" y="-75.7" font-family="Arial" font-size="14.00">Y</text>
</g>
<!-- x1&#45;&gt;a1 -->
<g id="edge6" class="edge">
<title>x1&#45;&gt;a1</title>
<path fill="none" stroke="black" d="M59.9,-87.21C93.29,-97.67 161.83,-119.16 201.56,-131.62"/>
<polygon fill="black" stroke="black" points="200.39,-134.92 210.98,-134.57 202.48,-128.24 200.39,-134.92"/>
</g>
<!-- a2 -->
<g id="node7" class="node">
<title>a2</title>
<ellipse fill="deepskyblue" stroke="black" cx="232.88" cy="-81.12" rx="21.12" ry="21.12"/>
<text text-anchor="start" x="225" y="-76.7" font-family="Arial" font-size="14.00">A</text>
<text text-anchor="start" x="234" y="-76.7" font-family="Arial" baseline-shift="sub" font-size="14.00">2</text>
</g>
<!-- x1&#45;&gt;a2 -->
<g id="edge7" class="edge">
<title>x1&#45;&gt;a2</title>
<path fill="none" stroke="black" d="M60.98,-81.12C94.27,-81.12 160.38,-81.12 199.91,-81.12"/>
<polygon fill="black" stroke="black" points="199.74,-84.62 209.74,-81.12 199.74,-77.62 199.74,-84.62"/>
</g>
<!-- a3 -->
<g id="node8" class="node">
<title>a3</title>
<ellipse fill="deepskyblue" stroke="black" cx="232.88" cy="-21.12" rx="21.12" ry="21.12"/>
<text text-anchor="start" x="225" y="-16.7" font-family="Arial" font-size="14.00">A</text>
<text text-anchor="start" x="234" y="-16.7" font-family="Arial" baseline-shift="sub" font-size="14.00">3</text>
</g>
<!-- x1&#45;&gt;a3 -->
<g id="edge8" class="edge">
<title>x1&#45;&gt;a3</title>
<path fill="none" stroke="black" d="M59.9,-75.04C93.29,-64.57 161.83,-43.09 201.56,-30.63"/>
<polygon fill="black" stroke="black" points="202.48,-34.01 210.98,-27.68 200.39,-27.33 202.48,-34.01"/>
</g>
<!-- a1&#45;&gt;a2 -->
<!-- a1&#45;&gt;fx -->
<g id="edge9" class="edge">
<title>a1&#45;&gt;fx</title>
<path fill="none" stroke="black" d="M253.48,-135.15C286.84,-124.99 355.04,-104.22 396.48,-91.6"/>
<polygon fill="black" stroke="black" points="397.41,-94.97 405.96,-88.71 395.37,-88.28 397.41,-94.97"/>
</g>
<!-- a2&#45;&gt;a3 -->
<!-- a2&#45;&gt;fx -->
<g id="edge10" class="edge">
<title>a2&#45;&gt;fx</title>
<path fill="none" stroke="black" d="M254.22,-81.12C287.41,-81.12 353.66,-81.12 394.92,-81.12"/>
<polygon fill="black" stroke="black" points="394.85,-84.62 404.85,-81.12 394.85,-77.62 394.85,-84.62"/>
</g>
<!-- a3&#45;&gt;fx -->
<g id="edge11" class="edge">
<title>a3&#45;&gt;fx</title>
<path fill="none" stroke="black" d="M253.48,-27.1C286.84,-37.26 355.04,-58.03 396.48,-70.65"/>
<polygon fill="black" stroke="black" points="395.37,-73.97 405.96,-73.54 397.41,-67.27 395.37,-73.97"/>
</g>
<!-- fx&#45;&gt;y -->
<g id="edge12" class="edge">
<title>fx&#45;&gt;y</title>
<path fill="none" stroke="black" d="M457.27,-81.12C487.4,-81.12 538.96,-81.12 573.98,-81.12"/>
<polygon fill="black" stroke="black" points="573.66,-84.62 583.66,-81.12 573.66,-77.62 573.66,-84.62"/>
</g>
</g>
</svg>
